G04 Layer_Color=255*
%FSLAX25Y25*%
%MOIN*%
G70*
G01*
G75*
%ADD24R,0.05905X0.05905*%
%ADD25C,0.05905*%
%ADD26R,0.05905X0.05905*%
%ADD27C,0.06000*%
D24*
X146063Y353937D02*
D03*
X271201Y450984D02*
D03*
D25*
X136063Y353937D02*
D03*
X146063Y363937D02*
D03*
X136063D02*
D03*
X146063Y373937D02*
D03*
X136063D02*
D03*
X129626Y439325D02*
D03*
X119626D02*
D03*
X129626Y431693D02*
D03*
X119626D02*
D03*
X197795Y368504D02*
D03*
X207795D02*
D03*
X217795D02*
D03*
X227795D02*
D03*
X251752Y354528D02*
D03*
X274094Y354232D02*
D03*
X111350Y494488D02*
D03*
X263811D02*
D03*
X234776D02*
D03*
X201508Y494685D02*
D03*
X170405D02*
D03*
X140386Y494488D02*
D03*
X141201Y391142D02*
D03*
X151201D02*
D03*
X161201D02*
D03*
X171201D02*
D03*
X181201D02*
D03*
X191201D02*
D03*
X201201D02*
D03*
X211201D02*
D03*
X221201D02*
D03*
X231201D02*
D03*
X241201D02*
D03*
X251201D02*
D03*
X261201D02*
D03*
X271201D02*
D03*
X141201Y450984D02*
D03*
X151201D02*
D03*
X161201D02*
D03*
X171201D02*
D03*
X181201D02*
D03*
X191201D02*
D03*
X201201D02*
D03*
X211201D02*
D03*
X221201D02*
D03*
X231201D02*
D03*
X241201D02*
D03*
X251201D02*
D03*
X261201D02*
D03*
X207913Y357776D02*
D03*
X197913D02*
D03*
X187913D02*
D03*
X201201Y401142D02*
D03*
X141201D02*
D03*
X151201D02*
D03*
D26*
X237795Y368504D02*
D03*
X241752Y354528D02*
D03*
X264094Y354232D02*
D03*
X121350Y494488D02*
D03*
X273811D02*
D03*
X244776D02*
D03*
X211508Y494685D02*
D03*
X180405D02*
D03*
X150386Y494488D02*
D03*
X217913Y357776D02*
D03*
D27*
X201201Y411142D02*
D03*
M02*
