G04 Layer_Color=32896*
%FSLAX25Y25*%
%MOIN*%
G70*
G01*
G75*
%ADD32C,0.00689*%
D32*
X123319Y493209D02*
Y496357D01*
X122269Y495308D01*
X121220Y496357D01*
Y493209D01*
X120170D02*
X119121D01*
X119646D01*
Y496357D01*
X120170Y495832D01*
X152945Y493209D02*
Y496357D01*
X151895Y495308D01*
X150846Y496357D01*
Y493209D01*
X147697D02*
X149796D01*
X147697Y495308D01*
Y495832D01*
X148222Y496357D01*
X149272D01*
X149796Y495832D01*
X173031Y486811D02*
Y489960D01*
X171982Y488910D01*
X170932Y489960D01*
Y486811D01*
X169883Y489435D02*
X169358Y489960D01*
X168309D01*
X167784Y489435D01*
Y488910D01*
X168309Y488385D01*
X168833D01*
X168309D01*
X167784Y487860D01*
Y487336D01*
X168309Y486811D01*
X169358D01*
X169883Y487336D01*
X204232Y486614D02*
Y489763D01*
X203183Y488713D01*
X202133Y489763D01*
Y486614D01*
X199509D02*
Y489763D01*
X201084Y488189D01*
X198985D01*
X247532Y493405D02*
Y496554D01*
X246482Y495505D01*
X245432Y496554D01*
Y493405D01*
X242284Y496554D02*
X244383D01*
Y494980D01*
X243333Y495505D01*
X242809D01*
X242284Y494980D01*
Y493930D01*
X242809Y493405D01*
X243858D01*
X244383Y493930D01*
X276468Y493405D02*
Y496554D01*
X275419Y495505D01*
X274370Y496554D01*
Y493405D01*
X271221Y496554D02*
X272270Y496029D01*
X273320Y494980D01*
Y493930D01*
X272795Y493405D01*
X271746D01*
X271221Y493930D01*
Y494455D01*
X271746Y494980D01*
X273320D01*
X225098Y345766D02*
Y343143D01*
X223786Y341831D01*
X222475Y343143D01*
Y345766D01*
X218539D02*
X221163D01*
Y341831D01*
X218539D01*
X221163Y343799D02*
X219851D01*
X217227Y341831D02*
Y345766D01*
X215259D01*
X214603Y345111D01*
Y343799D01*
X215259Y343143D01*
X217227D01*
X215915D02*
X214603Y341831D01*
X211323D02*
Y345766D01*
X213291Y343799D01*
X210667D01*
X209355Y341831D02*
Y342487D01*
X208699D01*
Y341831D01*
X209355D01*
X206076Y345111D02*
X205420Y345766D01*
X204108D01*
X203452Y345111D01*
Y342487D01*
X204108Y341831D01*
X205420D01*
X206076Y342487D01*
Y345111D01*
X194269Y341831D02*
Y345766D01*
X192301D01*
X191645Y345111D01*
Y343799D01*
X192301Y343143D01*
X194269D01*
X192957D02*
X191645Y341831D01*
X187709Y345766D02*
X190333D01*
Y341831D01*
X187709D01*
X190333Y343799D02*
X189021D01*
X186397Y345766D02*
Y343143D01*
X185085Y341831D01*
X183773Y343143D01*
Y345766D01*
X182461Y341831D02*
Y344455D01*
X181149Y345766D01*
X179837Y344455D01*
Y341831D01*
Y343799D01*
X182461D01*
X178525Y341831D02*
X177214D01*
X177870D01*
Y345766D01*
X178525Y345111D01*
X168686Y345766D02*
X169998D01*
X169342D01*
Y342487D01*
X169998Y341831D01*
X170654D01*
X171310Y342487D01*
X164750Y345766D02*
X167374D01*
Y341831D01*
X164750D01*
X167374Y343799D02*
X166062D01*
X163438Y345766D02*
Y343143D01*
X162127Y341831D01*
X160815Y343143D01*
Y345766D01*
X156879D02*
X159503D01*
Y343799D01*
X158191D01*
X159503D01*
Y341831D01*
X155567Y345766D02*
Y341831D01*
Y343799D01*
X152943D01*
Y345766D01*
Y341831D01*
X275098Y345078D02*
X272999D01*
X269851Y346653D02*
X271950D01*
Y345078D01*
X270900Y345603D01*
X270375D01*
X269851Y345078D01*
Y344029D01*
X270375Y343504D01*
X271425D01*
X271950Y344029D01*
X268801Y346653D02*
Y344553D01*
X267752Y343504D01*
X266702Y344553D01*
Y346653D01*
X265653Y345078D02*
X263554D01*
X264603Y346128D02*
Y344029D01*
X254035Y345078D02*
X251936D01*
X250887Y346653D02*
Y343504D01*
X249312D01*
X248788Y344029D01*
Y344553D01*
X249312Y345078D01*
X250887D01*
X249312D01*
X248788Y345603D01*
Y346128D01*
X249312Y346653D01*
X250887D01*
X247738Y343504D02*
Y345603D01*
X246689Y346653D01*
X245639Y345603D01*
Y343504D01*
Y345078D01*
X247738D01*
X244590Y346653D02*
X242491D01*
X243540D01*
Y343504D01*
X241441Y345078D02*
X239342D01*
X240391Y346128D02*
Y344029D01*
X222868Y351213D02*
X223524Y351869D01*
X224836D01*
X225492Y351213D01*
Y348589D01*
X224836Y347933D01*
X223524D01*
X222868Y348589D01*
Y349901D01*
X224180D01*
X221556Y347933D02*
Y350557D01*
X220245Y351869D01*
X218933Y350557D01*
Y347933D01*
Y349901D01*
X221556D01*
X217621Y351869D02*
Y347933D01*
X214997D01*
X213685Y351869D02*
X212373D01*
X213029D01*
Y347933D01*
X213685D01*
X212373D01*
X210405Y351869D02*
Y347933D01*
X207781D01*
X203846Y351869D02*
X206469D01*
Y347933D01*
X203846D01*
X206469Y349901D02*
X205157D01*
X200566Y351869D02*
X201878D01*
X202534Y351213D01*
Y348589D01*
X201878Y347933D01*
X200566D01*
X199910Y348589D01*
Y351213D01*
X200566Y351869D01*
X194662D02*
Y347933D01*
Y349901D01*
X192038D01*
Y351869D01*
Y347933D01*
X190726D02*
Y350557D01*
X189415Y351869D01*
X188103Y350557D01*
Y347933D01*
Y349901D01*
X190726D01*
X186791Y347933D02*
Y351869D01*
X184167Y347933D01*
Y351869D01*
X182855D02*
Y347933D01*
X180887D01*
X180231Y348589D01*
Y351213D01*
X180887Y351869D01*
X182855D01*
X141929Y486417D02*
Y489566D01*
X140880Y488516D01*
X139830Y489566D01*
Y486417D01*
X136681D02*
X138780D01*
X136681Y488516D01*
Y489041D01*
X137206Y489566D01*
X138256D01*
X138780Y489041D01*
X112894Y486319D02*
Y489467D01*
X111844Y488418D01*
X110795Y489467D01*
Y486319D01*
X109745D02*
X108696D01*
X109220D01*
Y489467D01*
X109745Y488943D01*
X237008Y486417D02*
Y489566D01*
X235958Y488516D01*
X234909Y489566D01*
Y486417D01*
X231760Y489566D02*
X233859D01*
Y487992D01*
X232810Y488516D01*
X232285D01*
X231760Y487992D01*
Y486942D01*
X232285Y486417D01*
X233334D01*
X233859Y486942D01*
X266142Y486024D02*
Y489172D01*
X265092Y488123D01*
X264043Y489172D01*
Y486024D01*
X260894Y489172D02*
X261944Y488648D01*
X262993Y487598D01*
Y486548D01*
X262468Y486024D01*
X261419D01*
X260894Y486548D01*
Y487073D01*
X261419Y487598D01*
X262993D01*
M02*
