G04 Layer_Color=255*
%FSLAX25Y25*%
%MOIN*%
G70*
G01*
G75*
%ADD23C,0.05905*%
%ADD24R,0.05905X0.05905*%
%ADD25R,0.05905X0.05905*%
%ADD27R,0.05905X0.11811*%
%ADD28R,0.11811X0.05905*%
D23*
X241102Y409311D02*
D03*
X231102D02*
D03*
X221102D02*
D03*
X141102Y399311D02*
D03*
X151102D02*
D03*
X161102D02*
D03*
X171102D02*
D03*
X181102D02*
D03*
X191102D02*
D03*
X201102D02*
D03*
X211102D02*
D03*
X221102D02*
D03*
X231102D02*
D03*
X241102D02*
D03*
X251102D02*
D03*
X261102D02*
D03*
X271102D02*
D03*
X141102Y459154D02*
D03*
X151102D02*
D03*
X161102D02*
D03*
X171102D02*
D03*
X181102D02*
D03*
X191102D02*
D03*
X201102D02*
D03*
X211102D02*
D03*
X221102D02*
D03*
X231102D02*
D03*
X241102D02*
D03*
X251102D02*
D03*
X261102D02*
D03*
X274094Y354232D02*
D03*
X136063Y383937D02*
D03*
Y373937D02*
D03*
Y363937D02*
D03*
Y353937D02*
D03*
X146063Y383937D02*
D03*
Y373937D02*
D03*
Y363937D02*
D03*
X198681Y367618D02*
D03*
X208681D02*
D03*
X218681D02*
D03*
X228681D02*
D03*
X129410Y440551D02*
D03*
X119410D02*
D03*
X251752Y354528D02*
D03*
X129410Y448183D02*
D03*
X119410D02*
D03*
D24*
X271102Y459154D02*
D03*
X146063Y353937D02*
D03*
D25*
X264094Y354232D02*
D03*
X238681Y367618D02*
D03*
X241752Y354528D02*
D03*
D27*
X249705Y489468D02*
D03*
X263484D02*
D03*
X131890D02*
D03*
X145669D02*
D03*
X176870D02*
D03*
X163091D02*
D03*
X189567D02*
D03*
X203346D02*
D03*
X235433D02*
D03*
X221654D02*
D03*
D28*
X111811Y493701D02*
D03*
Y479921D02*
D03*
M02*
