M48
;Layer_Color=9474304
;FILE_FORMAT=2:4
INCH
;TYPE=PLATED
T1F00S00C0.0118
T2F00S00C0.0354
T3F00S00C0.0394
T4F00S00C0.0433
%
T01
X012569Y039459
X012638Y041299
X012067
X011859Y040927
X011594Y040650
X011663Y045922
X012184Y045843
X011899Y046847
X014448Y045882
X015688Y045912
X018149Y045882
X017819Y046822
X020373Y045813
X021584Y045823
X023957Y045845
X023582Y046768
X027895Y045662
X027913Y045236
X018543Y039892
X018109Y047083
X018178Y048185
Y048569
X016948Y047811
X015678Y047182
X015659Y048609
X021170Y048540
X021564Y048018
X024025Y048313
X024143Y048658
X023918Y047024
X027017Y048510
X027529Y048481
X011997Y048254
T02
X013606Y035394
X014606
Y036394
X013606
Y037394
X014606
X019780Y036850
X020780
X021780
X022780
X023780
X021791Y035778
X020791
X019791
X018791
X018041Y049468
X017041
X020151
X021151
X023478Y049449
X024478
X026381
X027381
X015039
X014039
X012135
X011135
T03
X014120Y039114
X015120
Y040114
X014120
X012963Y043932
X011963
Y043169
X014120Y045098
X015120
X016120
X017120
X018120
X019120
X020120
X021120
X022120
X023120
X024120
X025120
X026120
X027120
Y039114
X026120
X025120
X024120
X023120
X022120
X021120
X020120
X019120
X018120
X017120
X016120
X020120Y040114
Y041114
X024175Y035453
X025175
X026409Y035423
X027409
T04
X012963Y043169
M30
