G04 Layer_Physical_Order=1*
G04 Layer_Color=255*
%FSLAX25Y25*%
%MOIN*%
G70*
G01*
G75*
%ADD10R,0.07087X0.02559*%
%ADD11R,0.02362X0.03543*%
%ADD12R,0.03543X0.02362*%
%ADD13R,0.06299X0.03543*%
%ADD14R,0.03543X0.06299*%
%ADD15R,0.06299X0.01378*%
%ADD16R,0.09094X0.09685*%
%ADD17R,0.02047X0.02205*%
%ADD18R,0.01181X0.03150*%
%ADD19R,0.03150X0.01181*%
%ADD20R,0.01968X0.02165*%
%ADD21C,0.01000*%
%ADD22C,0.01968*%
%ADD23C,0.02362*%
%ADD24R,0.05905X0.05905*%
%ADD25C,0.05905*%
%ADD26R,0.05905X0.05905*%
%ADD27C,0.06000*%
%ADD28C,0.02165*%
G36*
X158995Y487412D02*
X159219Y487262D01*
Y472602D01*
X159145D01*
Y470169D01*
X157877D01*
X157725Y470669D01*
X157848Y470751D01*
X158174Y471239D01*
X158289Y471815D01*
X158174Y472391D01*
X157848Y472879D01*
X157695Y472982D01*
Y475063D01*
X157625Y475412D01*
X157428Y475707D01*
X156247Y476888D01*
X155951Y477086D01*
X155602Y477155D01*
X154002D01*
X153831Y477327D01*
Y477720D01*
X154002Y477892D01*
X155110D01*
X155459Y477961D01*
X155755Y478159D01*
X157231Y479635D01*
X157429Y479931D01*
X157498Y480279D01*
Y484920D01*
X157651Y485022D01*
X157977Y485511D01*
X158092Y486087D01*
X157977Y486663D01*
X157651Y487151D01*
X157534Y487229D01*
X157686Y487729D01*
X158677D01*
X158995Y487412D01*
D02*
G37*
G36*
X184828Y483528D02*
X186187D01*
Y479591D01*
X183752D01*
Y478728D01*
X183252Y478461D01*
X183188Y478503D01*
Y481350D01*
X183289Y481854D01*
X183174Y482430D01*
X182848Y482919D01*
X182360Y483245D01*
X181783Y483360D01*
X181207Y483245D01*
X180719Y482919D01*
X180393Y482430D01*
X180278Y481854D01*
X180378Y481350D01*
Y477578D01*
X180252Y477476D01*
X179904Y477345D01*
X177174Y480075D01*
X177302Y480575D01*
X178339D01*
Y484782D01*
X180617D01*
X180719Y484628D01*
X181207Y484302D01*
X181783Y484188D01*
X182360Y484302D01*
X182848Y484628D01*
X183174Y485117D01*
X183289Y485693D01*
X183174Y486269D01*
X182848Y486757D01*
X182360Y487084D01*
X181783Y487198D01*
X181207Y487084D01*
X180719Y486757D01*
X180617Y486604D01*
X178692D01*
X178339Y486958D01*
X178339Y487662D01*
X178811Y487729D01*
X184828D01*
Y483528D01*
D02*
G37*
G36*
X155639Y487229D02*
X155522Y487151D01*
X155196Y486663D01*
X155081Y486087D01*
X155196Y485511D01*
X155522Y485022D01*
X155675Y484920D01*
Y480657D01*
X154733Y479714D01*
X153831D01*
Y479886D01*
X146744Y479886D01*
X146671Y480356D01*
Y482264D01*
X147836Y483429D01*
X150287D01*
Y487729D01*
X155487D01*
X155639Y487229D01*
D02*
G37*
G36*
X283760Y489075D02*
X283507Y488935D01*
X283260Y488893D01*
X280564Y491588D01*
X280044Y491936D01*
X279429Y492058D01*
X278815Y491936D01*
X278294Y491588D01*
X277946Y491067D01*
X277610Y491027D01*
X277157Y491380D01*
Y497835D01*
X270465D01*
Y491440D01*
X270465Y491142D01*
X270048Y490940D01*
X265297D01*
X265197Y491440D01*
X265499Y491565D01*
X266198Y492101D01*
X266734Y492801D01*
X267071Y493615D01*
X267186Y494488D01*
X267071Y495362D01*
X266734Y496176D01*
X266198Y496875D01*
X265499Y497411D01*
X264685Y497749D01*
X263811Y497863D01*
X262937Y497749D01*
X262123Y497411D01*
X261424Y496875D01*
X260888Y496176D01*
X260551Y495362D01*
X260436Y494488D01*
X260551Y493615D01*
X260888Y492801D01*
X261424Y492101D01*
X262123Y491565D01*
X262425Y491440D01*
X262325Y490940D01*
X255307D01*
X254963Y490872D01*
X254618Y490940D01*
X254004Y490818D01*
X253483Y490470D01*
X252847Y489834D01*
X252210Y490470D01*
X251689Y490818D01*
X251075Y490940D01*
X251075Y490940D01*
X248539D01*
X248122Y491142D01*
X248122Y491440D01*
Y497835D01*
X241429D01*
Y491440D01*
X241429Y491142D01*
X241013Y490940D01*
X236262D01*
X236162Y491440D01*
X236463Y491565D01*
X237162Y492101D01*
X237699Y492801D01*
X238036Y493615D01*
X238151Y494488D01*
X238036Y495362D01*
X237699Y496176D01*
X237162Y496875D01*
X236463Y497411D01*
X235649Y497749D01*
X234776Y497863D01*
X233902Y497749D01*
X233088Y497411D01*
X232389Y496875D01*
X231853Y496176D01*
X231515Y495362D01*
X231400Y494488D01*
X231515Y493615D01*
X231853Y492801D01*
X232389Y492101D01*
X233088Y491565D01*
X233389Y491440D01*
X233290Y490940D01*
X220661D01*
X220047Y490818D01*
X219526Y490470D01*
X219035Y490573D01*
X218815Y490720D01*
X218201Y490842D01*
X218201Y490842D01*
X214862D01*
X214854Y491339D01*
X214854Y491342D01*
Y498032D01*
X208161D01*
Y491342D01*
X208161Y491339D01*
X208154Y490842D01*
X201980D01*
X201758Y491250D01*
X201753Y491337D01*
X202225Y491404D01*
X202381Y491425D01*
X203196Y491762D01*
X203895Y492298D01*
X204431Y492997D01*
X204768Y493811D01*
X204883Y494685D01*
X204768Y495559D01*
X204431Y496373D01*
X203895Y497072D01*
X203196Y497608D01*
X202381Y497945D01*
X201508Y498060D01*
X200634Y497945D01*
X199820Y497608D01*
X199121Y497072D01*
X198585Y496373D01*
X198248Y495559D01*
X198133Y494685D01*
X198248Y493811D01*
X198585Y492997D01*
X199121Y492298D01*
X199820Y491762D01*
X200634Y491425D01*
X200791Y491404D01*
X201263Y491337D01*
X201257Y491250D01*
X201036Y490842D01*
X193496D01*
X193496Y490842D01*
X193496Y490842D01*
X193131Y490769D01*
X192882Y490720D01*
X192881Y490720D01*
X192881Y490720D01*
X192604Y490534D01*
X192361Y490372D01*
X191928Y490566D01*
X191551Y490818D01*
X190937Y490940D01*
X190937Y490940D01*
X183997D01*
X183752Y491339D01*
X183752Y491440D01*
Y498032D01*
X177059D01*
Y491440D01*
X177059Y491339D01*
X176813Y490940D01*
X171364D01*
X171279Y491425D01*
X172093Y491762D01*
X172792Y492298D01*
X173329Y492997D01*
X173666Y493811D01*
X173781Y494685D01*
X173666Y495559D01*
X173329Y496373D01*
X172792Y497072D01*
X172093Y497608D01*
X171279Y497945D01*
X170405Y498060D01*
X169532Y497945D01*
X168718Y497608D01*
X168019Y497072D01*
X167482Y496373D01*
X167145Y495559D01*
X167030Y494685D01*
X167145Y493811D01*
X167482Y492997D01*
X168019Y492298D01*
X168718Y491762D01*
X169532Y491425D01*
X169447Y490940D01*
X162295D01*
X161681Y490818D01*
X161160Y490470D01*
X160819Y490129D01*
X160478Y490470D01*
X159957Y490818D01*
X159343Y490940D01*
X159343Y490940D01*
X154149D01*
X153732Y491142D01*
X153732Y491440D01*
Y497835D01*
X147039D01*
Y491440D01*
X147039Y491142D01*
X146623Y490940D01*
X141872D01*
X141772Y491440D01*
X142074Y491565D01*
X142773Y492101D01*
X143309Y492801D01*
X143646Y493615D01*
X143761Y494488D01*
X143646Y495362D01*
X143309Y496176D01*
X142773Y496875D01*
X142074Y497411D01*
X141259Y497749D01*
X140386Y497863D01*
X139512Y497749D01*
X138698Y497411D01*
X137999Y496875D01*
X137463Y496176D01*
X137126Y495362D01*
X137011Y494488D01*
X137126Y493615D01*
X137463Y492801D01*
X137999Y492101D01*
X138698Y491565D01*
X138999Y491440D01*
X138900Y490940D01*
X137197D01*
X137197Y490940D01*
X137197Y490940D01*
X136862Y490874D01*
X136582Y490818D01*
X136582Y490818D01*
X136582Y490818D01*
X136361Y490670D01*
X136061Y490470D01*
X136061Y490470D01*
X136061Y490470D01*
X135176Y489584D01*
X135176Y489584D01*
X135176Y489584D01*
X135176Y489584D01*
X135025Y489359D01*
X134828Y489063D01*
X134828Y489063D01*
X134828Y489063D01*
X134756Y488704D01*
X134705Y488449D01*
Y488449D01*
X134705Y488449D01*
X134705Y488449D01*
Y485693D01*
X134736Y485538D01*
Y483528D01*
X137886D01*
Y485538D01*
X137917Y485693D01*
Y487729D01*
X140626D01*
Y486094D01*
X142807D01*
Y485594D01*
X143307D01*
Y482823D01*
X144700D01*
X144849Y482642D01*
Y476173D01*
X144811Y475689D01*
X144349Y475689D01*
X139764D01*
Y470346D01*
X144811D01*
Y474213D01*
X145311Y474420D01*
X146416Y473315D01*
X146209Y472815D01*
X146138D01*
Y471626D01*
X150287D01*
Y470626D01*
X146138D01*
Y469437D01*
X146744D01*
Y467591D01*
X146744Y467484D01*
X146744D01*
Y467091D01*
X146744D01*
Y465031D01*
X146744Y464925D01*
Y464532D01*
X146744Y464425D01*
Y462472D01*
X146744Y462366D01*
Y461972D01*
X146744Y461866D01*
Y459807D01*
X146274Y459734D01*
X145647D01*
X145545Y459887D01*
X145056Y460214D01*
X144480Y460328D01*
X143904Y460214D01*
X143416Y459887D01*
X143090Y459399D01*
X142975Y458823D01*
X143090Y458247D01*
X143416Y457758D01*
X143904Y457432D01*
X144480Y457317D01*
X145056Y457432D01*
X145545Y457758D01*
X145647Y457912D01*
X149598D01*
X149947Y457981D01*
X150243Y458179D01*
X150932Y458868D01*
X151129Y459163D01*
X151199Y459512D01*
Y459807D01*
X153831D01*
Y461866D01*
X153831Y461972D01*
Y462366D01*
X154002Y462538D01*
X155127D01*
X155971Y461693D01*
Y460285D01*
X155817Y460183D01*
X155491Y459694D01*
X155377Y459118D01*
X155491Y458542D01*
X155817Y458054D01*
X156306Y457727D01*
X156882Y457613D01*
X157458Y457727D01*
X157946Y458054D01*
X158273Y458542D01*
X158387Y459118D01*
X158273Y459694D01*
X157946Y460183D01*
X157793Y460285D01*
Y462071D01*
X157724Y462420D01*
X157526Y462715D01*
X156148Y464093D01*
X155853Y464291D01*
X155504Y464360D01*
X154002D01*
X153831Y464532D01*
Y464925D01*
X154002Y465097D01*
X158717D01*
X159146Y464925D01*
Y460595D01*
X162295D01*
Y462354D01*
X162339Y462388D01*
X162795Y462537D01*
X163566Y461766D01*
X164021Y461462D01*
X164559Y461355D01*
X165051D01*
Y460595D01*
X168201D01*
Y464925D01*
X165078D01*
Y467665D01*
X166126D01*
Y470437D01*
Y473209D01*
X164445D01*
Y471420D01*
X163983Y471229D01*
X163781Y471430D01*
X163325Y471735D01*
X162787Y471842D01*
X162716D01*
Y479969D01*
X164256D01*
Y484118D01*
X164756D01*
Y484618D01*
X167527D01*
Y487729D01*
X173536D01*
X174008Y487662D01*
X174008Y487229D01*
Y480575D01*
X175262D01*
Y479788D01*
X175331Y479439D01*
X175529Y479143D01*
X177867Y476805D01*
X177676Y476343D01*
X171252D01*
Y475089D01*
X170448D01*
X170391Y475145D01*
Y476947D01*
X170545Y477050D01*
X170871Y477538D01*
X170986Y478114D01*
X170871Y478690D01*
X170545Y479179D01*
X170056Y479505D01*
X169480Y479620D01*
X168904Y479505D01*
X168416Y479179D01*
X168090Y478690D01*
X167975Y478114D01*
X168090Y477538D01*
X168416Y477050D01*
X168569Y476947D01*
Y474768D01*
X168639Y474419D01*
X168836Y474123D01*
X169427Y473533D01*
X169722Y473335D01*
X170071Y473266D01*
X171252D01*
Y472012D01*
X173884D01*
Y468075D01*
X173953Y467726D01*
X174028Y467615D01*
X174151Y467431D01*
X175588Y465993D01*
X175397Y465532D01*
X175295D01*
Y463260D01*
X178945D01*
Y464801D01*
X181657D01*
X181809Y464301D01*
X181577Y464147D01*
X180495Y463064D01*
X180190Y462608D01*
X180083Y462071D01*
Y459327D01*
X179983Y458823D01*
X180097Y458247D01*
X180424Y457758D01*
X180912Y457432D01*
X181488Y457317D01*
X182064Y457432D01*
X182553Y457758D01*
X182879Y458247D01*
X182993Y458823D01*
X182893Y459327D01*
Y461444D01*
X183279Y461743D01*
X183752Y461633D01*
X183752Y461249D01*
Y459512D01*
X190839D01*
Y461571D01*
X190839Y461677D01*
Y462071D01*
X190839Y462177D01*
Y464130D01*
X190839Y464236D01*
Y464630D01*
X190839Y464736D01*
Y466689D01*
X190839Y466795D01*
Y467189D01*
X190839Y467295D01*
Y469354D01*
X190839D01*
Y469748D01*
X190839D01*
Y471807D01*
X190839Y471913D01*
Y472307D01*
X190839Y472413D01*
Y474366D01*
X190839Y474472D01*
Y474866D01*
X190839Y474972D01*
Y476925D01*
X190839Y477032D01*
X190839D01*
Y477425D01*
X190839D01*
Y479591D01*
X188010D01*
Y484998D01*
X187978Y485156D01*
Y487729D01*
X190272D01*
X190734Y487267D01*
Y483528D01*
X193883D01*
Y487353D01*
X194161Y487631D01*
X196531D01*
Y486193D01*
X198713D01*
Y485693D01*
D01*
Y486193D01*
X200894D01*
Y487631D01*
X203043D01*
Y483528D01*
X203707D01*
Y475394D01*
X198819D01*
Y470051D01*
X203866D01*
Y473524D01*
X204366Y473731D01*
X205111Y472986D01*
X205193Y472520D01*
X205193Y472520D01*
Y471331D01*
X213492D01*
Y472520D01*
X212886D01*
Y474366D01*
X212886Y474472D01*
X212886D01*
Y474538D01*
X213315Y475038D01*
X214264D01*
X214613Y475107D01*
X214908Y475305D01*
X216286Y476682D01*
X216484Y476978D01*
X216553Y477327D01*
Y479014D01*
X216706Y479117D01*
X217033Y479605D01*
X217147Y480181D01*
X217033Y480757D01*
X216706Y481246D01*
X216218Y481572D01*
X215642Y481686D01*
X215066Y481572D01*
X214577Y481246D01*
X214251Y480757D01*
X214137Y480181D01*
X214251Y479605D01*
X214577Y479117D01*
X214731Y479014D01*
Y477704D01*
X213886Y476860D01*
X213057D01*
X212886Y477032D01*
Y477425D01*
X212886Y477531D01*
Y479591D01*
X210254D01*
Y482658D01*
X211524Y483928D01*
X211705Y483892D01*
X212281Y484007D01*
X212769Y484333D01*
X213095Y484822D01*
X213210Y485398D01*
X213095Y485974D01*
X212769Y486462D01*
X212281Y486788D01*
X211705Y486903D01*
X211129Y486788D01*
X210640Y486462D01*
X210314Y485974D01*
X210199Y485398D01*
X210235Y485217D01*
X208698Y483680D01*
X208501Y483384D01*
X208431Y483036D01*
Y479591D01*
X206029D01*
X205799Y479591D01*
X205529Y479979D01*
Y483528D01*
X206193D01*
Y487631D01*
X217536D01*
X217656Y487510D01*
X217880Y487360D01*
Y473291D01*
X217610D01*
Y469677D01*
X213492D01*
Y470331D01*
X205193D01*
Y469142D01*
X205799D01*
Y467295D01*
X205799Y467189D01*
Y466795D01*
X205799Y466689D01*
Y464736D01*
X205799Y464630D01*
Y464236D01*
X205799Y464130D01*
Y462177D01*
X205799Y462071D01*
Y461677D01*
X205799Y461571D01*
Y459512D01*
X205799D01*
X205719Y459045D01*
X204899D01*
X204797Y459198D01*
X204308Y459525D01*
X203732Y459639D01*
X203156Y459525D01*
X202668Y459198D01*
X202342Y458710D01*
X202227Y458134D01*
X202342Y457558D01*
X202668Y457069D01*
X203156Y456743D01*
X203732Y456629D01*
X204308Y456743D01*
X204797Y457069D01*
X204899Y457223D01*
X208457D01*
X208805Y457292D01*
X209101Y457489D01*
X209987Y458375D01*
X210184Y458671D01*
X210254Y459020D01*
Y459512D01*
X212886D01*
Y461571D01*
X212886Y461677D01*
Y462071D01*
X213057Y462242D01*
X214083D01*
X214927Y461398D01*
Y459399D01*
X214774Y459297D01*
X214448Y458808D01*
X214333Y458232D01*
X214448Y457656D01*
X214774Y457168D01*
X215263Y456842D01*
X215839Y456727D01*
X216415Y456842D01*
X216903Y457168D01*
X217229Y457656D01*
X217344Y458232D01*
X217229Y458808D01*
X216903Y459297D01*
X216750Y459399D01*
Y461776D01*
X216681Y462124D01*
X216483Y462420D01*
X215105Y463798D01*
X214809Y463995D01*
X214461Y464065D01*
X213057D01*
X212886Y464236D01*
Y464630D01*
X213057Y464801D01*
X217610D01*
Y460496D01*
X220760D01*
Y464827D01*
X220076D01*
X220027Y465077D01*
X219829Y465373D01*
X218845Y466357D01*
X218816Y466377D01*
X218811Y466479D01*
X218938Y466896D01*
X219329Y466974D01*
X219785Y467278D01*
X220178Y467672D01*
X220483Y468128D01*
X221024Y468284D01*
X223685Y465623D01*
Y464827D01*
X223516D01*
Y460496D01*
X226665D01*
Y464827D01*
X226495D01*
Y466205D01*
X226388Y466743D01*
X226084Y467198D01*
X225390Y467892D01*
X225581Y468354D01*
X227272D01*
Y470626D01*
X225091D01*
Y471126D01*
X224591D01*
Y473898D01*
X222909D01*
Y471026D01*
X222448Y470835D01*
X221376Y471906D01*
X221377Y471913D01*
Y480264D01*
X223016D01*
Y484413D01*
X223516D01*
Y484913D01*
X226287D01*
Y487729D01*
X232768D01*
Y480870D01*
X237073D01*
Y475850D01*
X230012D01*
Y471520D01*
X232250D01*
Y466599D01*
X232319Y466250D01*
X232517Y465954D01*
X232970Y465501D01*
X232779Y465039D01*
X229406D01*
Y462768D01*
X233555D01*
X237705D01*
Y464309D01*
X239826D01*
X239978Y463809D01*
X239747Y463655D01*
X238861Y462769D01*
X238556Y462313D01*
X238449Y461776D01*
Y459431D01*
X238180Y459028D01*
X238066Y458452D01*
X238180Y457875D01*
X238506Y457387D01*
X238995Y457061D01*
X239571Y456946D01*
X239661Y456964D01*
X239854Y456926D01*
X240392Y457033D01*
X240848Y457337D01*
X241152Y457793D01*
X241259Y458331D01*
Y458631D01*
X241528Y459020D01*
X241759Y459020D01*
X248614D01*
Y461079D01*
X248614Y461185D01*
Y461579D01*
X248614Y461685D01*
Y463638D01*
X248614Y463744D01*
Y464138D01*
X248614Y464244D01*
Y466303D01*
X248614Y466303D01*
Y466697D01*
X248614D01*
X248614Y466803D01*
Y468862D01*
X248614Y468862D01*
Y469256D01*
X248614D01*
X248614Y469362D01*
Y471315D01*
X248614Y471421D01*
X248614D01*
Y471815D01*
X248614D01*
Y473980D01*
X248614Y473980D01*
Y474374D01*
X248614D01*
X248614Y474480D01*
Y476433D01*
X248614Y476539D01*
X248614D01*
Y476933D01*
X248614D01*
Y479098D01*
X247754D01*
Y483528D01*
X248417D01*
Y487729D01*
X250410D01*
X251121Y487018D01*
X251173Y486983D01*
Y483528D01*
X254323D01*
Y486786D01*
X254376Y486821D01*
X255287Y487733D01*
X255307Y487729D01*
X256768D01*
Y486094D01*
X258949D01*
Y485594D01*
X259449D01*
Y482823D01*
X261130D01*
X261483Y482469D01*
Y474902D01*
X256594D01*
Y469559D01*
X261642D01*
Y472933D01*
X262142Y473141D01*
X262817Y472465D01*
X262968Y472028D01*
X262968Y472027D01*
Y470839D01*
X271268D01*
Y472028D01*
X270661D01*
Y473874D01*
X270661Y473980D01*
Y474374D01*
X270833Y474545D01*
X271843D01*
X272191Y474615D01*
X272487Y474812D01*
X273077Y475403D01*
X273275Y475699D01*
X273344Y476047D01*
Y481575D01*
X275107Y483338D01*
X275287Y483302D01*
X275864Y483416D01*
X276352Y483743D01*
X276678Y484231D01*
X276793Y484807D01*
X276678Y485383D01*
X276352Y485872D01*
X275864Y486198D01*
X275287Y486312D01*
X274711Y486198D01*
X274223Y485872D01*
X273897Y485383D01*
X273782Y484807D01*
X273818Y484626D01*
X271789Y482597D01*
X271591Y482302D01*
X271522Y481953D01*
Y476425D01*
X271465Y476368D01*
X270833D01*
X270661Y476539D01*
Y476933D01*
X270661Y477039D01*
Y479098D01*
X268029D01*
Y481674D01*
X269989Y483633D01*
X270169Y483597D01*
X270745Y483712D01*
X271234Y484038D01*
X271560Y484526D01*
X271675Y485102D01*
X271560Y485678D01*
X271234Y486167D01*
X270745Y486493D01*
X270169Y486608D01*
X269593Y486493D01*
X269105Y486167D01*
X268779Y485678D01*
X268664Y485102D01*
X268700Y484922D01*
X266474Y482695D01*
X266276Y482400D01*
X266207Y482051D01*
Y479098D01*
X263805D01*
X263575Y479098D01*
X263305Y479487D01*
Y483429D01*
X266429D01*
Y487729D01*
X279716D01*
X279855Y487756D01*
X280579Y487032D01*
Y481476D01*
X278740D01*
Y479295D01*
Y477114D01*
X280579D01*
Y476256D01*
X279319Y474995D01*
X278240D01*
X278085Y474965D01*
X276075D01*
Y471815D01*
X276635D01*
Y469184D01*
X271268D01*
Y469839D01*
X262968D01*
Y468650D01*
X263575D01*
Y466803D01*
X263575Y466697D01*
Y466303D01*
X263575Y466197D01*
Y464138D01*
X263575D01*
Y463744D01*
X263575D01*
Y461579D01*
X263575D01*
Y461185D01*
X263575D01*
Y459020D01*
X270661D01*
Y459079D01*
X271916D01*
X277869Y453126D01*
X277743Y452938D01*
X277629Y452362D01*
X277743Y451786D01*
X278069Y451298D01*
X278558Y450972D01*
X279134Y450857D01*
X279710Y450972D01*
X280198Y451298D01*
X280276Y451414D01*
X280776Y451263D01*
Y352929D01*
X276180Y348332D01*
X244785D01*
X243358Y349760D01*
Y351181D01*
X245098D01*
Y357874D01*
X244909D01*
X244702Y358374D01*
X245920Y359592D01*
X246117Y359888D01*
X246187Y360236D01*
Y369012D01*
X246736Y369561D01*
X247539D01*
Y368898D01*
X251870D01*
Y369561D01*
X260056D01*
X261687Y367930D01*
Y357579D01*
X260748D01*
Y350886D01*
X267441D01*
Y357579D01*
X265006D01*
Y374311D01*
X267520D01*
Y377658D01*
X265006D01*
Y380055D01*
X265535Y380585D01*
X270177D01*
X270526Y380654D01*
X270821Y380852D01*
X271747Y381777D01*
X271944Y382072D01*
X272014Y382421D01*
Y387873D01*
X272074Y387881D01*
X272888Y388219D01*
X273587Y388755D01*
X274124Y389454D01*
X274461Y390268D01*
X274576Y391142D01*
X274461Y392015D01*
X274124Y392829D01*
X273587Y393528D01*
X272888Y394065D01*
X272074Y394402D01*
X272020Y394409D01*
Y425151D01*
X271951Y425500D01*
X271753Y425796D01*
X270428Y427121D01*
X270132Y427318D01*
X269783Y427388D01*
X120850D01*
X120321Y427917D01*
Y428409D01*
X120500Y428433D01*
X121314Y428770D01*
X122013Y429306D01*
X122549Y430005D01*
X122886Y430819D01*
X123001Y431693D01*
X122886Y432566D01*
X122549Y433381D01*
X122013Y434080D01*
X121314Y434616D01*
X120537Y434938D01*
Y436080D01*
X121314Y436402D01*
X122013Y436938D01*
X122549Y437637D01*
X122821Y438293D01*
X123321Y438194D01*
Y433366D01*
X123352Y433208D01*
X123390Y433017D01*
X123390Y433017D01*
X123588Y432722D01*
X125261Y431049D01*
X125261Y431049D01*
X125261Y431049D01*
X125556Y430851D01*
X125556D01*
X125557Y430851D01*
X125781Y430806D01*
X125905Y430782D01*
X126381D01*
X126703Y430005D01*
X127239Y429306D01*
X127938Y428770D01*
X128752Y428433D01*
X129626Y428318D01*
X130500Y428433D01*
X131314Y428770D01*
X132013Y429306D01*
X132549Y430005D01*
X132871Y430782D01*
X150197D01*
X150546Y430851D01*
X150841Y431049D01*
X151753Y431960D01*
X151951Y432256D01*
X152020Y432605D01*
Y447717D01*
X152074Y447724D01*
X152888Y448061D01*
X153587Y448597D01*
X154124Y449297D01*
X154461Y450111D01*
X154576Y450984D01*
X154461Y451858D01*
X154124Y452672D01*
X153587Y453371D01*
X152888Y453907D01*
X152074Y454245D01*
X151201Y454360D01*
X150327Y454245D01*
X149513Y453907D01*
X148814Y453371D01*
X148278Y452672D01*
X147941Y451858D01*
X147826Y450984D01*
X147941Y450111D01*
X148278Y449297D01*
X148814Y448597D01*
X149513Y448061D01*
X150197Y447778D01*
Y432982D01*
X149819Y432604D01*
X132871D01*
X132549Y433381D01*
X132013Y434080D01*
X131314Y434616D01*
X130500Y434953D01*
X129626Y435068D01*
X128752Y434953D01*
X127938Y434616D01*
X127239Y434080D01*
X126703Y433381D01*
X126559Y433034D01*
X125970Y432917D01*
X125143Y433743D01*
Y442205D01*
X125074Y442554D01*
X124876Y442849D01*
X123774Y443951D01*
X123479Y444149D01*
X123130Y444218D01*
X112484D01*
X112006Y444696D01*
Y445329D01*
X112669D01*
Y449659D01*
X109520D01*
Y445329D01*
X110183D01*
Y444319D01*
X110253Y443970D01*
X110450Y443674D01*
X111462Y442663D01*
X111758Y442465D01*
X112106Y442396D01*
X117310D01*
X117480Y441896D01*
X117239Y441711D01*
X116703Y441012D01*
X116366Y440198D01*
X116251Y439325D01*
X116366Y438451D01*
X116703Y437637D01*
X117239Y436938D01*
X117938Y436402D01*
X118498Y436170D01*
Y434848D01*
X117938Y434616D01*
X117239Y434080D01*
X116703Y433381D01*
X116366Y432566D01*
X116251Y431693D01*
X116366Y430819D01*
X116703Y430005D01*
X117239Y429306D01*
X117938Y428770D01*
X118498Y428538D01*
Y427539D01*
X118568Y427190D01*
X118765Y426895D01*
X119828Y425832D01*
X120124Y425634D01*
X120472Y425565D01*
X269406D01*
X270197Y424774D01*
Y394348D01*
X269513Y394065D01*
X268814Y393528D01*
X268278Y392829D01*
X267940Y392015D01*
X267826Y391142D01*
X267940Y390268D01*
X268278Y389454D01*
X268814Y388755D01*
X269513Y388219D01*
X270191Y387938D01*
Y382799D01*
X269800Y382407D01*
X265158D01*
X264809Y382338D01*
X264513Y382140D01*
X263450Y381077D01*
X263253Y380782D01*
X263183Y380433D01*
Y377658D01*
X259646D01*
Y374311D01*
X263183D01*
Y369664D01*
X262721Y369473D01*
X261077Y371117D01*
X260782Y371314D01*
X260433Y371384D01*
X251870D01*
Y372047D01*
X247539D01*
Y371384D01*
X246358D01*
X246009Y371314D01*
X245714Y371117D01*
X244631Y370034D01*
X244434Y369739D01*
X244364Y369390D01*
Y360614D01*
X243323Y359573D01*
X221260D01*
Y361122D01*
X214567D01*
Y354429D01*
X221260D01*
Y357750D01*
X238405D01*
Y355636D01*
X236122D01*
Y356890D01*
X229035D01*
Y352559D01*
X236122D01*
Y353813D01*
X238405D01*
Y351181D01*
X240146D01*
Y349095D01*
X240146Y349095D01*
X240269Y348480D01*
X240617Y347959D01*
X242133Y346442D01*
X241942Y345980D01*
X241150D01*
Y343709D01*
X242831D01*
Y345093D01*
X243331Y345360D01*
X243505Y345243D01*
X244120Y345121D01*
X244980D01*
Y341043D01*
X248130D01*
Y345121D01*
X276845D01*
X276845Y345121D01*
X277459Y345243D01*
X277980Y345591D01*
X283260Y350871D01*
X283760Y350664D01*
Y339684D01*
X283268Y339469D01*
X135512Y339173D01*
X126237Y348361D01*
X100394Y469488D01*
X100689Y500000D01*
X283760D01*
Y489075D01*
D02*
G37*
G36*
X245268Y483528D02*
X245931D01*
Y479098D01*
X241653D01*
Y482629D01*
X241753Y483134D01*
X241639Y483710D01*
X241312Y484198D01*
X240824Y484525D01*
X240248Y484639D01*
X239672Y484525D01*
X239263Y484251D01*
X239261Y484250D01*
X238927Y484257D01*
X238662Y484318D01*
X238629Y484369D01*
X237940Y485058D01*
X237775Y485168D01*
X237927Y485668D01*
X240262D01*
X240365Y485514D01*
X240853Y485188D01*
X241429Y485073D01*
X242005Y485188D01*
X242494Y485514D01*
X242820Y486003D01*
X242934Y486579D01*
X242820Y487155D01*
X242770Y487229D01*
X243038Y487729D01*
X245268D01*
Y483528D01*
D02*
G37*
%LPC*%
G36*
X274106Y378264D02*
X270063D01*
Y376484D01*
X274106D01*
Y378264D01*
D02*
G37*
G36*
X279150D02*
X275106D01*
Y376484D01*
X279150D01*
Y378264D01*
D02*
G37*
G36*
X141201Y394517D02*
X140327Y394402D01*
X139513Y394065D01*
X138814Y393528D01*
X138278Y392829D01*
X137941Y392015D01*
X137826Y391142D01*
X137941Y390268D01*
X138278Y389454D01*
X138814Y388755D01*
X139513Y388219D01*
X140327Y387881D01*
X141201Y387766D01*
X142074Y387881D01*
X142888Y388219D01*
X143588Y388755D01*
X144124Y389454D01*
X144461Y390268D01*
X144576Y391142D01*
X144461Y392015D01*
X144124Y392829D01*
X143588Y393528D01*
X142888Y394065D01*
X142074Y394402D01*
X141201Y394517D01*
D02*
G37*
G36*
X191201D02*
X190327Y394402D01*
X189513Y394065D01*
X188814Y393528D01*
X188278Y392829D01*
X187941Y392015D01*
X187826Y391142D01*
X187941Y390268D01*
X188278Y389454D01*
X188814Y388755D01*
X189513Y388219D01*
X190327Y387881D01*
X191201Y387766D01*
X192074Y387881D01*
X192888Y388219D01*
X193588Y388755D01*
X194124Y389454D01*
X194461Y390268D01*
X194576Y391142D01*
X194461Y392015D01*
X194124Y392829D01*
X193588Y393528D01*
X192888Y394065D01*
X192074Y394402D01*
X191201Y394517D01*
D02*
G37*
G36*
X181201D02*
X180327Y394402D01*
X179513Y394065D01*
X178814Y393528D01*
X178278Y392829D01*
X177940Y392015D01*
X177825Y391142D01*
X177940Y390268D01*
X178278Y389454D01*
X178814Y388755D01*
X179513Y388219D01*
X180327Y387881D01*
X181201Y387766D01*
X182074Y387881D01*
X182888Y388219D01*
X183588Y388755D01*
X184124Y389454D01*
X184461Y390268D01*
X184576Y391142D01*
X184461Y392015D01*
X184124Y392829D01*
X183588Y393528D01*
X182888Y394065D01*
X182074Y394402D01*
X181201Y394517D01*
D02*
G37*
G36*
X171201D02*
X170327Y394402D01*
X169513Y394065D01*
X168814Y393528D01*
X168278Y392829D01*
X167940Y392015D01*
X167825Y391142D01*
X167940Y390268D01*
X168278Y389454D01*
X168814Y388755D01*
X169513Y388219D01*
X170327Y387881D01*
X171201Y387766D01*
X172074Y387881D01*
X172888Y388219D01*
X173588Y388755D01*
X174124Y389454D01*
X174461Y390268D01*
X174576Y391142D01*
X174461Y392015D01*
X174124Y392829D01*
X173588Y393528D01*
X172888Y394065D01*
X172074Y394402D01*
X171201Y394517D01*
D02*
G37*
G36*
X252279Y379520D02*
X250008D01*
Y375870D01*
X252279D01*
Y379520D01*
D02*
G37*
G36*
X164189Y372728D02*
X162508D01*
Y370457D01*
X164189D01*
Y372728D01*
D02*
G37*
G36*
X274106Y375484D02*
X270063D01*
Y373705D01*
X274106D01*
Y375484D01*
D02*
G37*
G36*
X261201Y394517D02*
X260327Y394402D01*
X259513Y394065D01*
X258814Y393528D01*
X258278Y392829D01*
X257941Y392015D01*
X257825Y391142D01*
X257941Y390268D01*
X258278Y389454D01*
X258814Y388755D01*
X259513Y388219D01*
X260197Y387935D01*
Y386584D01*
X259957Y386344D01*
X235138D01*
X234789Y386275D01*
X234493Y386077D01*
X233214Y384798D01*
X233016Y384502D01*
X232947Y384154D01*
Y376165D01*
X232709Y375927D01*
X192536D01*
X192187Y375858D01*
X191891Y375660D01*
X190580Y374349D01*
X190383Y374053D01*
X190313Y373705D01*
Y370145D01*
X190174Y370006D01*
X168307D01*
X167958Y369936D01*
X167663Y369739D01*
X166974Y369050D01*
X166776Y368754D01*
X166707Y368406D01*
Y367126D01*
X165453D01*
Y366266D01*
X161614D01*
Y367520D01*
X157194D01*
X157014Y367700D01*
Y371063D01*
X157677D01*
Y375394D01*
X154528D01*
Y374848D01*
X149308D01*
X148986Y375625D01*
X148450Y376324D01*
X147751Y376860D01*
X146937Y377197D01*
X146063Y377312D01*
X145189Y377197D01*
X144375Y376860D01*
X143676Y376324D01*
X143140Y375625D01*
X142818Y374848D01*
X139308D01*
X138986Y375625D01*
X138450Y376324D01*
X137751Y376860D01*
X136937Y377197D01*
X136063Y377312D01*
X135189Y377197D01*
X134375Y376860D01*
X133676Y376324D01*
X133140Y375625D01*
X132803Y374811D01*
X132728Y374246D01*
X132710Y374110D01*
X132210Y374143D01*
Y379446D01*
X132956Y380191D01*
X159153D01*
X159502Y380260D01*
X159798Y380458D01*
X161753Y382413D01*
X161951Y382709D01*
X162020Y383057D01*
Y387874D01*
X162074Y387881D01*
X162888Y388219D01*
X163587Y388755D01*
X164124Y389454D01*
X164461Y390268D01*
X164576Y391142D01*
X164461Y392015D01*
X164124Y392829D01*
X163587Y393528D01*
X162888Y394065D01*
X162074Y394402D01*
X161201Y394517D01*
X160327Y394402D01*
X159513Y394065D01*
X158814Y393528D01*
X158278Y392829D01*
X157940Y392015D01*
X157826Y391142D01*
X157940Y390268D01*
X158278Y389454D01*
X158814Y388755D01*
X159513Y388219D01*
X160197Y387935D01*
Y383435D01*
X158776Y382014D01*
X151082D01*
X150890Y382475D01*
X151753Y383338D01*
X151951Y383634D01*
X152020Y383983D01*
Y387874D01*
X152074Y387881D01*
X152888Y388219D01*
X153587Y388755D01*
X154124Y389454D01*
X154461Y390268D01*
X154576Y391142D01*
X154461Y392015D01*
X154124Y392829D01*
X153587Y393528D01*
X152888Y394065D01*
X152074Y394402D01*
X151201Y394517D01*
X150327Y394402D01*
X149513Y394065D01*
X148814Y393528D01*
X148278Y392829D01*
X147941Y392015D01*
X147826Y391142D01*
X147941Y390268D01*
X148278Y389454D01*
X148814Y388755D01*
X149513Y388219D01*
X150197Y387935D01*
Y384360D01*
X149327Y383490D01*
X131988D01*
X131640Y383421D01*
X131344Y383223D01*
X129080Y380959D01*
X128883Y380664D01*
X128813Y380315D01*
Y366043D01*
X128883Y365695D01*
X129080Y365399D01*
X131186Y363293D01*
X131482Y363095D01*
X131831Y363026D01*
X132818D01*
X133140Y362249D01*
X133676Y361550D01*
X134375Y361014D01*
X135189Y360677D01*
X136063Y360562D01*
X136937Y360677D01*
X137751Y361014D01*
X138450Y361550D01*
X138986Y362249D01*
X139323Y363063D01*
X139438Y363937D01*
X139323Y364811D01*
X138986Y365625D01*
X138450Y366324D01*
X137751Y366860D01*
X136937Y367197D01*
X137005Y367691D01*
X144546D01*
X144687Y367531D01*
X144548Y366932D01*
X144375Y366860D01*
X143676Y366324D01*
X143140Y365625D01*
X142803Y364811D01*
X142688Y363937D01*
X142803Y363063D01*
X143140Y362249D01*
X143676Y361550D01*
X144375Y361014D01*
X145189Y360677D01*
X146063Y360562D01*
X146937Y360677D01*
X147751Y361014D01*
X148450Y361550D01*
X148986Y362249D01*
X149323Y363063D01*
X149438Y363937D01*
X149323Y364811D01*
X148986Y365625D01*
X148450Y366324D01*
X147751Y366860D01*
X146974Y367182D01*
Y367913D01*
X146905Y368262D01*
X146707Y368558D01*
X146018Y369247D01*
X145723Y369444D01*
X145374Y369514D01*
X133547D01*
X132210Y370850D01*
Y373731D01*
X132710Y373764D01*
X132728Y373628D01*
X132803Y373063D01*
X133140Y372249D01*
X133676Y371550D01*
X134375Y371014D01*
X135189Y370677D01*
X136063Y370562D01*
X136937Y370677D01*
X137751Y371014D01*
X138450Y371550D01*
X138986Y372249D01*
X139308Y373026D01*
X142818D01*
X143140Y372249D01*
X143676Y371550D01*
X144375Y371014D01*
X145189Y370677D01*
X146063Y370562D01*
X146937Y370677D01*
X147751Y371014D01*
X148450Y371550D01*
X148986Y372249D01*
X149308Y373026D01*
X154528D01*
Y371063D01*
X155191D01*
Y367520D01*
X154528D01*
Y363189D01*
X161614D01*
Y364443D01*
X165453D01*
Y363976D01*
X169783D01*
Y367126D01*
X168529D01*
Y368028D01*
X168684Y368183D01*
X190551D01*
X190900Y368253D01*
X191195Y368450D01*
X191245Y368500D01*
X191707Y368308D01*
Y366519D01*
X191650Y366462D01*
X178346D01*
Y367126D01*
X174016D01*
Y363976D01*
X178346D01*
Y364640D01*
X192028D01*
X192376Y364709D01*
X192672Y364907D01*
X193262Y365497D01*
X193460Y365793D01*
X193529Y366142D01*
Y372654D01*
X193586Y372711D01*
X206316D01*
X206416Y372211D01*
X205802Y371957D01*
X204976Y371323D01*
X204343Y370497D01*
X203944Y369536D01*
X203874Y369004D01*
X207795D01*
X211716D01*
X211646Y369536D01*
X211248Y370497D01*
X210614Y371323D01*
X209789Y371957D01*
X209175Y372211D01*
X209275Y372711D01*
X236713D01*
X237062Y372780D01*
X237270Y372920D01*
X237770Y372764D01*
Y371850D01*
X234449D01*
Y365158D01*
X241142D01*
Y371850D01*
X239592D01*
Y376477D01*
X240256D01*
Y383563D01*
X235925D01*
Y376477D01*
X236490D01*
Y374689D01*
X236335Y374533D01*
X234546D01*
X234355Y374995D01*
X234503Y375143D01*
X234700Y375439D01*
X234770Y375787D01*
Y383776D01*
X235515Y384522D01*
X246382D01*
X246736Y384169D01*
X246736Y384022D01*
Y380520D01*
X252279D01*
Y384022D01*
X252279Y384169D01*
X252634Y384522D01*
X260335D01*
X260683Y384591D01*
X260979Y384789D01*
X261753Y385563D01*
X261950Y385858D01*
X262020Y386207D01*
Y387874D01*
X262074Y387881D01*
X262889Y388219D01*
X263587Y388755D01*
X264124Y389454D01*
X264461Y390268D01*
X264576Y391142D01*
X264461Y392015D01*
X264124Y392829D01*
X263587Y393528D01*
X262889Y394065D01*
X262074Y394402D01*
X261201Y394517D01*
D02*
G37*
G36*
X161508Y372728D02*
X159827D01*
Y370457D01*
X161508D01*
Y372728D01*
D02*
G37*
G36*
X164189Y376000D02*
X162508D01*
Y373728D01*
X164189D01*
Y376000D01*
D02*
G37*
G36*
X249008Y379520D02*
X246736D01*
Y375870D01*
X249008D01*
Y379520D01*
D02*
G37*
G36*
X279150Y375484D02*
X275106D01*
Y373705D01*
X279150D01*
Y375484D01*
D02*
G37*
G36*
X161508Y376000D02*
X159827D01*
Y373728D01*
X161508D01*
Y376000D01*
D02*
G37*
G36*
X125689Y396092D02*
X125113Y395977D01*
X124625Y395651D01*
X124298Y395163D01*
X124184Y394587D01*
X124298Y394011D01*
X124625Y393522D01*
X125113Y393196D01*
X125689Y393081D01*
X126265Y393196D01*
X126753Y393522D01*
X126856Y393675D01*
X127438D01*
X127898Y393579D01*
Y391976D01*
X131945D01*
Y393579D01*
X131339D01*
Y396043D01*
X128504D01*
Y395498D01*
X126856D01*
X126753Y395651D01*
X126265Y395977D01*
X125689Y396092D01*
D02*
G37*
G36*
X121343Y398827D02*
X120252D01*
Y396752D01*
X121343D01*
Y398827D01*
D02*
G37*
G36*
X129421Y390976D02*
X127898D01*
Y389374D01*
X129421D01*
Y390976D01*
D02*
G37*
G36*
X131945D02*
X130421D01*
Y389374D01*
X131945D01*
Y390976D01*
D02*
G37*
G36*
X127248Y401902D02*
X126279D01*
Y399327D01*
Y396752D01*
X127248D01*
Y399327D01*
Y401902D01*
D02*
G37*
G36*
X131307Y398827D02*
X130217D01*
Y396752D01*
X131307D01*
Y398827D01*
D02*
G37*
G36*
X123433Y403748D02*
X120858D01*
X118283D01*
Y403124D01*
X118269Y403121D01*
X117974Y402924D01*
X117171Y402121D01*
X116973Y401825D01*
X116904Y401476D01*
Y394980D01*
X116973Y394632D01*
X117171Y394336D01*
X117800Y393706D01*
X118096Y393509D01*
X118445Y393439D01*
X119055D01*
X119532Y393382D01*
Y391779D01*
X121555D01*
X123579D01*
Y393382D01*
X122972D01*
Y395847D01*
X120138D01*
Y395262D01*
X118822D01*
X118726Y395358D01*
Y401099D01*
X118922Y401295D01*
X120252D01*
Y399827D01*
X121843D01*
Y399327D01*
X122343D01*
Y396752D01*
X123311D01*
Y399327D01*
Y401902D01*
X122827D01*
Y402658D01*
X123433D01*
Y403748D01*
D02*
G37*
G36*
X125279Y401902D02*
X124311D01*
Y399327D01*
Y396752D01*
X125279D01*
Y399327D01*
Y401902D01*
D02*
G37*
G36*
X221201Y394517D02*
X220327Y394402D01*
X219513Y394065D01*
X218814Y393528D01*
X218278Y392829D01*
X217940Y392015D01*
X217826Y391142D01*
X217940Y390268D01*
X218278Y389454D01*
X218814Y388755D01*
X219513Y388219D01*
X220327Y387881D01*
X221201Y387766D01*
X222074Y387881D01*
X222888Y388219D01*
X223587Y388755D01*
X224124Y389454D01*
X224461Y390268D01*
X224576Y391142D01*
X224461Y392015D01*
X224124Y392829D01*
X223587Y393528D01*
X222888Y394065D01*
X222074Y394402D01*
X221201Y394517D01*
D02*
G37*
G36*
X231201D02*
X230327Y394402D01*
X229513Y394065D01*
X228814Y393528D01*
X228278Y392829D01*
X227941Y392015D01*
X227825Y391142D01*
X227941Y390268D01*
X228278Y389454D01*
X228814Y388755D01*
X229513Y388219D01*
X230327Y387881D01*
X231201Y387766D01*
X232074Y387881D01*
X232889Y388219D01*
X233588Y388755D01*
X234124Y389454D01*
X234461Y390268D01*
X234576Y391142D01*
X234461Y392015D01*
X234124Y392829D01*
X233588Y393528D01*
X232889Y394065D01*
X232074Y394402D01*
X231201Y394517D01*
D02*
G37*
G36*
X201201D02*
X200327Y394402D01*
X199513Y394065D01*
X198814Y393528D01*
X198278Y392829D01*
X197941Y392015D01*
X197826Y391142D01*
X197941Y390268D01*
X198278Y389454D01*
X198814Y388755D01*
X199513Y388219D01*
X200327Y387881D01*
X201201Y387766D01*
X202074Y387881D01*
X202888Y388219D01*
X203588Y388755D01*
X204124Y389454D01*
X204461Y390268D01*
X204576Y391142D01*
X204461Y392015D01*
X204124Y392829D01*
X203588Y393528D01*
X202888Y394065D01*
X202074Y394402D01*
X201201Y394517D01*
D02*
G37*
G36*
X211201D02*
X210327Y394402D01*
X209513Y394065D01*
X208814Y393528D01*
X208278Y392829D01*
X207941Y392015D01*
X207825Y391142D01*
X207941Y390268D01*
X208278Y389454D01*
X208814Y388755D01*
X209513Y388219D01*
X210327Y387881D01*
X211201Y387766D01*
X212074Y387881D01*
X212889Y388219D01*
X213587Y388755D01*
X214124Y389454D01*
X214461Y390268D01*
X214576Y391142D01*
X214461Y392015D01*
X214124Y392829D01*
X213587Y393528D01*
X212889Y394065D01*
X212074Y394402D01*
X211201Y394517D01*
D02*
G37*
G36*
X121055Y390779D02*
X119532D01*
Y389177D01*
X121055D01*
Y390779D01*
D02*
G37*
G36*
X123579D02*
X122055D01*
Y389177D01*
X123579D01*
Y390779D01*
D02*
G37*
G36*
X185433Y400423D02*
X184857Y400308D01*
X184369Y399982D01*
X184042Y399493D01*
X183928Y398917D01*
X184042Y398341D01*
X184369Y397853D01*
X184857Y397527D01*
X185433Y397412D01*
X185614Y397448D01*
X187348Y395714D01*
X187643Y395516D01*
X187992Y395447D01*
X239879D01*
X240290Y395036D01*
Y394387D01*
X239513Y394065D01*
X238814Y393528D01*
X238278Y392829D01*
X237941Y392015D01*
X237825Y391142D01*
X237941Y390268D01*
X238278Y389454D01*
X238814Y388755D01*
X239513Y388219D01*
X240327Y387881D01*
X241201Y387766D01*
X242074Y387881D01*
X242888Y388219D01*
X243587Y388755D01*
X244124Y389454D01*
X244461Y390268D01*
X244576Y391142D01*
X244461Y392015D01*
X244124Y392829D01*
X243587Y393528D01*
X242888Y394065D01*
X242112Y394387D01*
Y395413D01*
X242043Y395762D01*
X241845Y396058D01*
X240900Y397003D01*
X240605Y397200D01*
X240256Y397270D01*
X188370D01*
X186902Y398737D01*
X186938Y398917D01*
X186824Y399493D01*
X186497Y399982D01*
X186009Y400308D01*
X185433Y400423D01*
D02*
G37*
G36*
X122335Y422860D02*
X117905D01*
X117557Y422791D01*
X117261Y422593D01*
X115277Y420609D01*
X115079Y420313D01*
X115010Y419965D01*
Y407647D01*
X114881Y407560D01*
X114554Y407072D01*
X114440Y406496D01*
X114554Y405920D01*
X114881Y405432D01*
X115369Y405105D01*
X115945Y404991D01*
X116521Y405105D01*
X117009Y405432D01*
X117112Y405585D01*
X118283D01*
Y404748D01*
X120858D01*
X123433D01*
Y405839D01*
X122827D01*
Y406595D01*
X123433D01*
Y407201D01*
X124189D01*
Y406595D01*
X125279D01*
Y409169D01*
X126279D01*
Y406595D01*
X127370D01*
Y407201D01*
X128126D01*
Y406717D01*
X130701D01*
Y405717D01*
X128126D01*
Y404626D01*
X128732D01*
Y403264D01*
Y401902D01*
X128248D01*
Y399327D01*
Y396752D01*
X129217D01*
Y399327D01*
X129717D01*
Y399827D01*
X131307D01*
Y401295D01*
X132669D01*
Y401388D01*
X132920Y401438D01*
X133215Y401635D01*
X134200Y402620D01*
X134397Y402915D01*
X134466Y403264D01*
Y407988D01*
X134397Y408337D01*
X134200Y408633D01*
X133018Y409814D01*
X132723Y410011D01*
X132374Y410080D01*
X130701D01*
Y411138D01*
X130628D01*
Y414783D01*
X131724D01*
Y415368D01*
X139741D01*
X140132Y414977D01*
Y407874D01*
X140201Y407525D01*
X140399Y407230D01*
X142171Y405458D01*
X142466Y405261D01*
X142815Y405191D01*
X250016D01*
X250290Y404918D01*
Y394387D01*
X249513Y394065D01*
X248814Y393528D01*
X248278Y392829D01*
X247940Y392015D01*
X247826Y391142D01*
X247940Y390268D01*
X248278Y389454D01*
X248814Y388755D01*
X249513Y388219D01*
X250327Y387881D01*
X251201Y387766D01*
X252074Y387881D01*
X252888Y388219D01*
X253588Y388755D01*
X254124Y389454D01*
X254461Y390268D01*
X254576Y391142D01*
X254461Y392015D01*
X254124Y392829D01*
X253588Y393528D01*
X252888Y394065D01*
X252112Y394387D01*
Y405295D01*
X252043Y405644D01*
X251845Y405940D01*
X251038Y406747D01*
X250742Y406944D01*
X250394Y407014D01*
X143192D01*
X141955Y408251D01*
Y415354D01*
X141885Y415703D01*
X141688Y415999D01*
X140762Y416924D01*
X140467Y417121D01*
X140118Y417191D01*
X132807D01*
X132331Y417248D01*
Y418850D01*
X130307D01*
Y419350D01*
X129807D01*
Y421453D01*
X127165D01*
Y419350D01*
X126165D01*
Y421453D01*
X124642D01*
Y421445D01*
X124264Y421012D01*
X124033Y421048D01*
Y421161D01*
X123964Y421510D01*
X123766Y421806D01*
X122979Y422593D01*
X122683Y422791D01*
X122335Y422860D01*
D02*
G37*
G36*
X255673Y354028D02*
X252252D01*
Y350607D01*
X252784Y350677D01*
X253745Y351075D01*
X254571Y351709D01*
X255205Y352534D01*
X255603Y353496D01*
X255673Y354028D01*
D02*
G37*
G36*
X251252D02*
X247831D01*
X247901Y353496D01*
X248299Y352534D01*
X248933Y351709D01*
X249759Y351075D01*
X250720Y350677D01*
X251252Y350607D01*
Y354028D01*
D02*
G37*
G36*
X278015Y353732D02*
X274594D01*
Y350311D01*
X275126Y350381D01*
X276088Y350780D01*
X276913Y351413D01*
X277547Y352239D01*
X277945Y353200D01*
X278015Y353732D01*
D02*
G37*
G36*
X207413Y357276D02*
X203992D01*
X204062Y356744D01*
X204461Y355782D01*
X205094Y354956D01*
X205920Y354323D01*
X206881Y353925D01*
X207413Y353855D01*
Y357276D01*
D02*
G37*
G36*
X197913Y361151D02*
X197040Y361036D01*
X196226Y360699D01*
X195527Y360162D01*
X194990Y359463D01*
X194653Y358649D01*
X194538Y357776D01*
X194653Y356902D01*
X194990Y356088D01*
X195527Y355389D01*
X196226Y354853D01*
X197040Y354515D01*
X197913Y354400D01*
X198787Y354515D01*
X199601Y354853D01*
X200300Y355389D01*
X200836Y356088D01*
X201174Y356902D01*
X201289Y357776D01*
X201174Y358649D01*
X200836Y359463D01*
X200300Y360162D01*
X199601Y360699D01*
X198787Y361036D01*
X197913Y361151D01*
D02*
G37*
G36*
X187913D02*
X187040Y361036D01*
X186226Y360699D01*
X185527Y360162D01*
X184990Y359463D01*
X184653Y358649D01*
X184538Y357776D01*
X184653Y356902D01*
X184990Y356088D01*
X185527Y355389D01*
X186226Y354853D01*
X187040Y354515D01*
X187913Y354400D01*
X188787Y354515D01*
X189601Y354853D01*
X190300Y355389D01*
X190837Y356088D01*
X191174Y356902D01*
X191289Y357776D01*
X191174Y358649D01*
X190837Y359463D01*
X190300Y360162D01*
X189601Y360699D01*
X188787Y361036D01*
X187913Y361151D01*
D02*
G37*
G36*
X211834Y357276D02*
X208413D01*
Y353855D01*
X208945Y353925D01*
X209907Y354323D01*
X210733Y354956D01*
X211366Y355782D01*
X211764Y356744D01*
X211834Y357276D01*
D02*
G37*
G36*
X273594Y353732D02*
X270173D01*
X270243Y353200D01*
X270642Y352239D01*
X271275Y351413D01*
X272101Y350780D01*
X273062Y350381D01*
X273594Y350311D01*
Y353732D01*
D02*
G37*
G36*
X232079Y342807D02*
X228429D01*
Y340535D01*
X232079D01*
Y342807D01*
D02*
G37*
G36*
X242831Y342709D02*
X241150D01*
Y340437D01*
X242831D01*
Y342709D01*
D02*
G37*
G36*
X240150D02*
X238469D01*
Y340437D01*
X240150D01*
Y342709D01*
D02*
G37*
G36*
X236728Y342807D02*
X233079D01*
Y340535D01*
X236728D01*
Y342807D01*
D02*
G37*
G36*
Y346079D02*
X233079D01*
Y343807D01*
X236728D01*
Y346079D01*
D02*
G37*
G36*
X232079D02*
X228429D01*
Y343807D01*
X232079D01*
Y346079D01*
D02*
G37*
G36*
X240150Y345980D02*
X238469D01*
Y343709D01*
X240150D01*
Y345980D01*
D02*
G37*
G36*
X273594Y358153D02*
X273062Y358083D01*
X272101Y357685D01*
X271275Y357051D01*
X270642Y356226D01*
X270243Y355264D01*
X270173Y354732D01*
X273594D01*
Y358153D01*
D02*
G37*
G36*
X249205Y366748D02*
X246933D01*
Y365067D01*
X249205D01*
Y366748D01*
D02*
G37*
G36*
X211716Y368004D02*
X208295D01*
Y364583D01*
X208827Y364653D01*
X209789Y365051D01*
X210614Y365685D01*
X211248Y366511D01*
X211646Y367472D01*
X211716Y368004D01*
D02*
G37*
G36*
X207295D02*
X203874D01*
X203944Y367472D01*
X204343Y366511D01*
X204976Y365685D01*
X205802Y365051D01*
X206764Y364653D01*
X207295Y364583D01*
Y368004D01*
D02*
G37*
G36*
X252476Y366748D02*
X250205D01*
Y365067D01*
X252476D01*
Y366748D01*
D02*
G37*
G36*
X227795Y371879D02*
X226922Y371764D01*
X226108Y371427D01*
X225409Y370891D01*
X224872Y370192D01*
X224535Y369378D01*
X224420Y368504D01*
X224535Y367630D01*
X224872Y366816D01*
X225409Y366117D01*
X226108Y365581D01*
X226922Y365244D01*
X227795Y365129D01*
X228669Y365244D01*
X229483Y365581D01*
X230182Y366117D01*
X230718Y366816D01*
X231056Y367630D01*
X231171Y368504D01*
X231056Y369378D01*
X230718Y370192D01*
X230182Y370891D01*
X229483Y371427D01*
X228669Y371764D01*
X227795Y371879D01*
D02*
G37*
G36*
X217795D02*
X216922Y371764D01*
X216108Y371427D01*
X215409Y370891D01*
X214872Y370192D01*
X214535Y369378D01*
X214420Y368504D01*
X214535Y367630D01*
X214872Y366816D01*
X215409Y366117D01*
X216108Y365581D01*
X216922Y365244D01*
X217795Y365129D01*
X218669Y365244D01*
X219483Y365581D01*
X220182Y366117D01*
X220719Y366816D01*
X221056Y367630D01*
X221171Y368504D01*
X221056Y369378D01*
X220719Y370192D01*
X220182Y370891D01*
X219483Y371427D01*
X218669Y371764D01*
X217795Y371879D01*
D02*
G37*
G36*
X197795D02*
X196922Y371764D01*
X196108Y371427D01*
X195409Y370891D01*
X194872Y370192D01*
X194535Y369378D01*
X194420Y368504D01*
X194535Y367630D01*
X194872Y366816D01*
X195409Y366117D01*
X196108Y365581D01*
X196922Y365244D01*
X197795Y365129D01*
X198669Y365244D01*
X199483Y365581D01*
X200182Y366117D01*
X200718Y366816D01*
X201056Y367630D01*
X201171Y368504D01*
X201056Y369378D01*
X200718Y370192D01*
X200182Y370891D01*
X199483Y371427D01*
X198669Y371764D01*
X197795Y371879D01*
D02*
G37*
G36*
X252476Y364067D02*
X250205D01*
Y362386D01*
X252476D01*
Y364067D01*
D02*
G37*
G36*
X252252Y358449D02*
Y355028D01*
X255673D01*
X255603Y355559D01*
X255205Y356521D01*
X254571Y357347D01*
X253745Y357980D01*
X252784Y358379D01*
X252252Y358449D01*
D02*
G37*
G36*
X251252D02*
X250720Y358379D01*
X249759Y357980D01*
X248933Y357347D01*
X248299Y356521D01*
X247901Y355559D01*
X247831Y355028D01*
X251252D01*
Y358449D01*
D02*
G37*
G36*
X274594Y358153D02*
Y354732D01*
X278015D01*
X277945Y355264D01*
X277547Y356226D01*
X276913Y357051D01*
X276088Y357685D01*
X275126Y358083D01*
X274594Y358153D01*
D02*
G37*
G36*
X207413Y361697D02*
X206881Y361627D01*
X205920Y361228D01*
X205094Y360595D01*
X204461Y359769D01*
X204062Y358807D01*
X203992Y358276D01*
X207413D01*
Y361697D01*
D02*
G37*
G36*
X249205Y364067D02*
X246933D01*
Y362386D01*
X249205D01*
Y364067D01*
D02*
G37*
G36*
X178346Y361220D02*
X174016D01*
Y360557D01*
X169783D01*
Y361220D01*
X165453D01*
Y358071D01*
X166707D01*
Y355692D01*
X165863Y354848D01*
X161614D01*
Y356102D01*
X154528D01*
Y354848D01*
X149409D01*
Y357283D01*
X142717D01*
Y354848D01*
X139308D01*
X138986Y355625D01*
X138450Y356324D01*
X137751Y356860D01*
X136937Y357197D01*
X136063Y357312D01*
X135189Y357197D01*
X134375Y356860D01*
X133676Y356324D01*
X133140Y355625D01*
X132803Y354811D01*
X132688Y353937D01*
X132803Y353063D01*
X133140Y352249D01*
X133676Y351550D01*
X134375Y351014D01*
X135189Y350677D01*
X136063Y350562D01*
X136937Y350677D01*
X137751Y351014D01*
X138450Y351550D01*
X138986Y352249D01*
X139308Y353026D01*
X142717D01*
Y350591D01*
X149409D01*
Y353026D01*
X154528D01*
Y351772D01*
X161614D01*
Y353026D01*
X166240D01*
X166589Y353095D01*
X166885Y353293D01*
X168262Y354671D01*
X168460Y354966D01*
X168529Y355315D01*
Y358071D01*
X169783D01*
Y358734D01*
X174016D01*
Y358071D01*
X178346D01*
Y361220D01*
D02*
G37*
G36*
X208413Y361697D02*
Y358276D01*
X211834D01*
X211764Y358807D01*
X211366Y359769D01*
X210733Y360595D01*
X209907Y361228D01*
X208945Y361627D01*
X208413Y361697D01*
D02*
G37*
G36*
X141201Y404517D02*
X140327Y404402D01*
X139513Y404065D01*
X138814Y403528D01*
X138278Y402829D01*
X137941Y402015D01*
X137826Y401142D01*
X137941Y400268D01*
X138278Y399454D01*
X138814Y398755D01*
X139513Y398219D01*
X140327Y397881D01*
X141201Y397766D01*
X142074Y397881D01*
X142888Y398219D01*
X143588Y398755D01*
X144124Y399454D01*
X144461Y400268D01*
X144576Y401142D01*
X144461Y402015D01*
X144124Y402829D01*
X143588Y403528D01*
X142888Y404065D01*
X142074Y404402D01*
X141201Y404517D01*
D02*
G37*
G36*
X114575Y470331D02*
X110925D01*
Y468059D01*
X114575D01*
Y470331D01*
D02*
G37*
G36*
X109925D02*
X106276D01*
Y468059D01*
X109925D01*
Y470331D01*
D02*
G37*
G36*
X168807Y469937D02*
X167126D01*
Y467665D01*
X168807D01*
Y469937D01*
D02*
G37*
G36*
X255594Y474902D02*
X250547D01*
Y469559D01*
X255594D01*
Y474902D01*
D02*
G37*
G36*
X138764Y475689D02*
X133717D01*
Y470346D01*
X138764D01*
Y475689D01*
D02*
G37*
G36*
X197819Y475394D02*
X192772D01*
Y470051D01*
X197819D01*
Y475394D01*
D02*
G37*
G36*
X111350Y497863D02*
X110477Y497749D01*
X109663Y497411D01*
X108964Y496875D01*
X108427Y496176D01*
X108090Y495362D01*
X107975Y494488D01*
X108090Y493615D01*
X108427Y492801D01*
X108964Y492101D01*
X109663Y491565D01*
X110012Y491420D01*
Y477024D01*
X110119Y476486D01*
X110424Y476030D01*
X111499Y474955D01*
X111954Y474651D01*
X112492Y474544D01*
X115454D01*
X119575Y470422D01*
X119448Y469930D01*
X119398Y469892D01*
X118988Y469974D01*
X118412Y469859D01*
X117924Y469533D01*
X117597Y469045D01*
X117483Y468469D01*
X117597Y467893D01*
X117924Y467404D01*
X118004Y467351D01*
X118020Y467166D01*
X117951Y466784D01*
X117753Y466652D01*
X116277Y465176D01*
X116079Y464880D01*
X116010Y464532D01*
Y460581D01*
X115562Y460281D01*
X115459Y460128D01*
X113969D01*
Y461579D01*
X106882D01*
Y457248D01*
X113969D01*
Y458305D01*
X115459D01*
X115562Y458152D01*
X116050Y457826D01*
X116626Y457711D01*
X117202Y457826D01*
X117690Y458152D01*
X118017Y458640D01*
X118131Y459216D01*
X118017Y459793D01*
X117833Y460068D01*
Y464154D01*
X118775Y465097D01*
X122208D01*
X122360Y464597D01*
X122129Y464442D01*
X120849Y463163D01*
X120545Y462707D01*
X120438Y462169D01*
Y458934D01*
X120337Y458429D01*
X120452Y457853D01*
X120778Y457365D01*
X121266Y457038D01*
X121843Y456924D01*
X122419Y457038D01*
X122907Y457365D01*
X123233Y457853D01*
X123348Y458429D01*
X123248Y458934D01*
Y461587D01*
X123704Y462044D01*
X124226D01*
X124697Y461972D01*
X124697Y461544D01*
Y459807D01*
X131783D01*
Y461866D01*
X131783Y461972D01*
Y462366D01*
X131783Y462472D01*
Y464425D01*
X131783Y464532D01*
Y464925D01*
X131783Y465031D01*
Y466984D01*
X131783Y467091D01*
Y467484D01*
X131783Y467591D01*
Y469650D01*
X131783D01*
Y470043D01*
X131783D01*
Y472102D01*
X131783Y472209D01*
X131783D01*
Y472602D01*
X131783D01*
Y474768D01*
X131783Y474768D01*
Y475162D01*
X131783D01*
X131783Y475268D01*
Y477220D01*
X131783Y477327D01*
X131783D01*
Y477720D01*
X131783D01*
Y479886D01*
X129151D01*
Y483150D01*
X129529Y483528D01*
X131980D01*
Y487858D01*
X128831D01*
Y485407D01*
X127596Y484172D01*
X127398Y483876D01*
X127329Y483528D01*
Y479886D01*
X124697D01*
Y478883D01*
X124197Y478632D01*
X124035Y478753D01*
Y491142D01*
X124697D01*
Y497835D01*
X118004D01*
Y491142D01*
X121225D01*
Y484083D01*
X120725Y483816D01*
X120548Y483934D01*
X119973Y484049D01*
X119396Y483934D01*
X118908Y483608D01*
X118806Y483455D01*
X117815D01*
Y487598D01*
X113484D01*
Y480512D01*
X115223D01*
Y478902D01*
X115292Y478553D01*
X115490Y478257D01*
X115893Y477854D01*
X115686Y477354D01*
X113074D01*
X112822Y477606D01*
Y491476D01*
X113038Y491565D01*
X113737Y492101D01*
X114274Y492801D01*
X114611Y493615D01*
X114726Y494488D01*
X114611Y495362D01*
X114274Y496176D01*
X113737Y496875D01*
X113038Y497411D01*
X112224Y497749D01*
X111350Y497863D01*
D02*
G37*
G36*
X144811Y469347D02*
X139764D01*
Y464004D01*
X144811D01*
Y469347D01*
D02*
G37*
G36*
X261642Y468559D02*
X256594D01*
Y463216D01*
X261642D01*
Y468559D01*
D02*
G37*
G36*
X255594D02*
X250547D01*
Y463216D01*
X255594D01*
Y468559D01*
D02*
G37*
G36*
X178945Y462260D02*
X175295D01*
Y459988D01*
X178945D01*
Y462260D01*
D02*
G37*
G36*
X174295Y465532D02*
X170646D01*
Y463260D01*
X174295D01*
Y465532D01*
D02*
G37*
G36*
X138764Y469347D02*
X133717D01*
Y464004D01*
X138764D01*
Y469347D01*
D02*
G37*
G36*
X203866Y469051D02*
X198819D01*
Y463709D01*
X203866D01*
Y469051D01*
D02*
G37*
G36*
X197819D02*
X192772D01*
Y463709D01*
X197819D01*
Y469051D01*
D02*
G37*
G36*
X168807Y473209D02*
X167126D01*
Y470937D01*
X168807D01*
Y473209D01*
D02*
G37*
G36*
X142307Y485094D02*
X140626D01*
Y482823D01*
X142307D01*
Y485094D01*
D02*
G37*
G36*
X258449D02*
X256768D01*
Y482823D01*
X258449D01*
Y485094D01*
D02*
G37*
G36*
X226287Y483913D02*
X224016D01*
Y480264D01*
X226287D01*
Y483913D01*
D02*
G37*
G36*
X198213Y485193D02*
X196531D01*
Y482921D01*
X198213D01*
Y485193D01*
D02*
G37*
G36*
X107004Y488205D02*
X104732D01*
Y484555D01*
X107004D01*
Y488205D01*
D02*
G37*
G36*
X103732D02*
X101461D01*
Y484555D01*
X103732D01*
Y488205D01*
D02*
G37*
G36*
X200894Y485193D02*
X199213D01*
Y482921D01*
X200894D01*
Y485193D01*
D02*
G37*
G36*
X167527Y483618D02*
X165256D01*
Y479969D01*
X167527D01*
Y483618D01*
D02*
G37*
G36*
X227272Y473898D02*
X225591D01*
Y471626D01*
X227272D01*
Y473898D01*
D02*
G37*
G36*
X114575Y473602D02*
X110925D01*
Y471331D01*
X114575D01*
Y473602D01*
D02*
G37*
G36*
X109925D02*
X106276D01*
Y471331D01*
X109925D01*
Y473602D01*
D02*
G37*
G36*
X277740Y478795D02*
X275468D01*
Y477114D01*
X277740D01*
Y478795D01*
D02*
G37*
G36*
X107004Y483555D02*
X104732D01*
Y479906D01*
X107004D01*
Y483555D01*
D02*
G37*
G36*
X103732D02*
X101461D01*
Y479906D01*
X103732D01*
Y483555D01*
D02*
G37*
G36*
X277740Y481476D02*
X275468D01*
Y479795D01*
X277740D01*
Y481476D01*
D02*
G37*
G36*
X161201Y454360D02*
X160327Y454245D01*
X159513Y453907D01*
X158814Y453371D01*
X158278Y452672D01*
X157940Y451858D01*
X157826Y450984D01*
X157940Y450111D01*
X158278Y449297D01*
X158814Y448597D01*
X159513Y448061D01*
X160327Y447724D01*
X161201Y447609D01*
X162074Y447724D01*
X162888Y448061D01*
X163587Y448597D01*
X164124Y449297D01*
X164461Y450111D01*
X164576Y450984D01*
X164461Y451858D01*
X164124Y452672D01*
X163587Y453371D01*
X162888Y453907D01*
X162074Y454245D01*
X161201Y454360D01*
D02*
G37*
G36*
X275153Y450484D02*
X271701D01*
Y447031D01*
X275153D01*
Y450484D01*
D02*
G37*
G36*
X270701D02*
X267248D01*
Y447031D01*
X270701D01*
Y450484D01*
D02*
G37*
G36*
X171201Y454360D02*
X170327Y454245D01*
X169513Y453907D01*
X168814Y453371D01*
X168278Y452672D01*
X167940Y451858D01*
X167825Y450984D01*
X167940Y450111D01*
X168278Y449297D01*
X168814Y448597D01*
X169513Y448061D01*
X170327Y447724D01*
X171201Y447609D01*
X172074Y447724D01*
X172888Y448061D01*
X173588Y448597D01*
X174124Y449297D01*
X174461Y450111D01*
X174576Y450984D01*
X174461Y451858D01*
X174124Y452672D01*
X173588Y453371D01*
X172888Y453907D01*
X172074Y454245D01*
X171201Y454360D01*
D02*
G37*
G36*
X201201D02*
X200327Y454245D01*
X199513Y453907D01*
X198814Y453371D01*
X198278Y452672D01*
X197941Y451858D01*
X197826Y450984D01*
X197941Y450111D01*
X198278Y449297D01*
X198814Y448597D01*
X199513Y448061D01*
X200327Y447724D01*
X201201Y447609D01*
X202074Y447724D01*
X202888Y448061D01*
X203588Y448597D01*
X204124Y449297D01*
X204461Y450111D01*
X204576Y450984D01*
X204461Y451858D01*
X204124Y452672D01*
X203588Y453371D01*
X202888Y453907D01*
X202074Y454245D01*
X201201Y454360D01*
D02*
G37*
G36*
X191201D02*
X190327Y454245D01*
X189513Y453907D01*
X188814Y453371D01*
X188278Y452672D01*
X187941Y451858D01*
X187826Y450984D01*
X187941Y450111D01*
X188278Y449297D01*
X188814Y448597D01*
X189513Y448061D01*
X190327Y447724D01*
X191201Y447609D01*
X192074Y447724D01*
X192888Y448061D01*
X193588Y448597D01*
X194124Y449297D01*
X194461Y450111D01*
X194576Y450984D01*
X194461Y451858D01*
X194124Y452672D01*
X193588Y453371D01*
X192888Y453907D01*
X192074Y454245D01*
X191201Y454360D01*
D02*
G37*
G36*
X181201D02*
X180327Y454245D01*
X179513Y453907D01*
X178814Y453371D01*
X178278Y452672D01*
X177940Y451858D01*
X177825Y450984D01*
X177940Y450111D01*
X178278Y449297D01*
X178814Y448597D01*
X179513Y448061D01*
X180327Y447724D01*
X181201Y447609D01*
X182074Y447724D01*
X182888Y448061D01*
X183588Y448597D01*
X184124Y449297D01*
X184461Y450111D01*
X184576Y450984D01*
X184461Y451858D01*
X184124Y452672D01*
X183588Y453371D01*
X182888Y453907D01*
X182074Y454245D01*
X181201Y454360D01*
D02*
G37*
G36*
X125685Y446994D02*
X124004D01*
Y444722D01*
X125685D01*
Y446994D01*
D02*
G37*
G36*
X201201Y414565D02*
X200315Y414448D01*
X199489Y414106D01*
X198780Y413562D01*
X198236Y412853D01*
X197895Y412028D01*
X197778Y411142D01*
X197895Y410256D01*
X198236Y409430D01*
X198780Y408721D01*
X199489Y408177D01*
X200315Y407835D01*
X201201Y407719D01*
X202087Y407835D01*
X202912Y408177D01*
X203621Y408721D01*
X204165Y409430D01*
X204507Y410256D01*
X204624Y411142D01*
X204507Y412028D01*
X204165Y412853D01*
X203621Y413562D01*
X202912Y414106D01*
X202087Y414448D01*
X201201Y414565D01*
D02*
G37*
G36*
Y404517D02*
X200327Y404402D01*
X199513Y404065D01*
X198814Y403528D01*
X198278Y402829D01*
X197941Y402015D01*
X197826Y401142D01*
X197941Y400268D01*
X198278Y399454D01*
X198814Y398755D01*
X199513Y398219D01*
X200327Y397881D01*
X201201Y397766D01*
X202074Y397881D01*
X202888Y398219D01*
X203588Y398755D01*
X204124Y399454D01*
X204461Y400268D01*
X204576Y401142D01*
X204461Y402015D01*
X204124Y402829D01*
X203588Y403528D01*
X202888Y404065D01*
X202074Y404402D01*
X201201Y404517D01*
D02*
G37*
G36*
X151201D02*
X150327Y404402D01*
X149513Y404065D01*
X148814Y403528D01*
X148278Y402829D01*
X147941Y402015D01*
X147826Y401142D01*
X147941Y400268D01*
X148278Y399454D01*
X148814Y398755D01*
X149513Y398219D01*
X150327Y397881D01*
X151201Y397766D01*
X152074Y397881D01*
X152889Y398219D01*
X153587Y398755D01*
X154124Y399454D01*
X154461Y400268D01*
X154576Y401142D01*
X154461Y402015D01*
X154124Y402829D01*
X153587Y403528D01*
X152889Y404065D01*
X152074Y404402D01*
X151201Y404517D01*
D02*
G37*
G36*
X132331Y421453D02*
X130807D01*
Y419850D01*
X132331D01*
Y421453D01*
D02*
G37*
G36*
X123004Y446994D02*
X121323D01*
Y444722D01*
X123004D01*
Y446994D01*
D02*
G37*
G36*
X119181Y446994D02*
X117500D01*
Y444722D01*
X119181D01*
Y446994D01*
D02*
G37*
G36*
X116500D02*
X114819D01*
Y444722D01*
X116500D01*
Y446994D01*
D02*
G37*
G36*
X211201Y454360D02*
X210327Y454245D01*
X209513Y453907D01*
X208814Y453371D01*
X208278Y452672D01*
X207941Y451858D01*
X207825Y450984D01*
X207941Y450111D01*
X208278Y449297D01*
X208814Y448597D01*
X209513Y448061D01*
X210327Y447724D01*
X211201Y447609D01*
X212074Y447724D01*
X212889Y448061D01*
X213587Y448597D01*
X214124Y449297D01*
X214461Y450111D01*
X214576Y450984D01*
X214461Y451858D01*
X214124Y452672D01*
X213587Y453371D01*
X212889Y453907D01*
X212074Y454245D01*
X211201Y454360D01*
D02*
G37*
G36*
X270701Y454937D02*
X267248D01*
Y451484D01*
X270701D01*
Y454937D01*
D02*
G37*
G36*
X141201Y454360D02*
X140327Y454245D01*
X139513Y453907D01*
X138814Y453371D01*
X138278Y452672D01*
X137941Y451858D01*
X137826Y450984D01*
X137941Y450111D01*
X138278Y449297D01*
X138571Y448915D01*
X138061Y448405D01*
X130984D01*
Y449659D01*
X127835D01*
Y445329D01*
X128715D01*
Y442569D01*
X127938Y442248D01*
X127239Y441711D01*
X126703Y441012D01*
X126366Y440198D01*
X126251Y439325D01*
X126366Y438451D01*
X126703Y437637D01*
X127239Y436938D01*
X127938Y436402D01*
X128752Y436064D01*
X129626Y435949D01*
X130500Y436064D01*
X131314Y436402D01*
X132013Y436938D01*
X132549Y437637D01*
X132886Y438451D01*
X133001Y439325D01*
X132886Y440198D01*
X132549Y441012D01*
X132013Y441711D01*
X131314Y442248D01*
X130537Y442569D01*
Y445329D01*
X130984D01*
Y446583D01*
X138439D01*
X138787Y446652D01*
X139083Y446850D01*
X140066Y447832D01*
X140327Y447724D01*
X141201Y447609D01*
X142074Y447724D01*
X142888Y448061D01*
X143588Y448597D01*
X144124Y449297D01*
X144461Y450111D01*
X144576Y450984D01*
X144461Y451858D01*
X144124Y452672D01*
X143588Y453371D01*
X142888Y453907D01*
X142074Y454245D01*
X141201Y454360D01*
D02*
G37*
G36*
X125685Y450266D02*
X124004D01*
Y447994D01*
X125685D01*
Y450266D01*
D02*
G37*
G36*
X275153Y454937D02*
X271701D01*
Y451484D01*
X275153D01*
Y454937D01*
D02*
G37*
G36*
X174295Y462260D02*
X170646D01*
Y459988D01*
X174295D01*
Y462260D01*
D02*
G37*
G36*
X237705Y461768D02*
X234055D01*
Y459496D01*
X237705D01*
Y461768D01*
D02*
G37*
G36*
X233055D02*
X229406D01*
Y459496D01*
X233055D01*
Y461768D01*
D02*
G37*
G36*
X123004Y450266D02*
X121323D01*
Y447994D01*
X123004D01*
Y450266D01*
D02*
G37*
G36*
X241201Y454360D02*
X240327Y454245D01*
X239513Y453907D01*
X238814Y453371D01*
X238278Y452672D01*
X237941Y451858D01*
X237825Y450984D01*
X237941Y450111D01*
X238278Y449297D01*
X238814Y448597D01*
X239513Y448061D01*
X240327Y447724D01*
X241201Y447609D01*
X242074Y447724D01*
X242888Y448061D01*
X243587Y448597D01*
X244124Y449297D01*
X244461Y450111D01*
X244576Y450984D01*
X244461Y451858D01*
X244124Y452672D01*
X243587Y453371D01*
X242888Y453907D01*
X242074Y454245D01*
X241201Y454360D01*
D02*
G37*
G36*
X231201D02*
X230327Y454245D01*
X229513Y453907D01*
X228814Y453371D01*
X228278Y452672D01*
X227941Y451858D01*
X227825Y450984D01*
X227941Y450111D01*
X228278Y449297D01*
X228814Y448597D01*
X229513Y448061D01*
X230327Y447724D01*
X231201Y447609D01*
X232074Y447724D01*
X232889Y448061D01*
X233588Y448597D01*
X234124Y449297D01*
X234461Y450111D01*
X234576Y450984D01*
X234461Y451858D01*
X234124Y452672D01*
X233588Y453371D01*
X232889Y453907D01*
X232074Y454245D01*
X231201Y454360D01*
D02*
G37*
G36*
X221201D02*
X220327Y454245D01*
X219513Y453907D01*
X218814Y453371D01*
X218278Y452672D01*
X217940Y451858D01*
X217826Y450984D01*
X217940Y450111D01*
X218278Y449297D01*
X218814Y448597D01*
X219513Y448061D01*
X220327Y447724D01*
X221201Y447609D01*
X222074Y447724D01*
X222888Y448061D01*
X223587Y448597D01*
X224124Y449297D01*
X224461Y450111D01*
X224576Y450984D01*
X224461Y451858D01*
X224124Y452672D01*
X223587Y453371D01*
X222888Y453907D01*
X222074Y454245D01*
X221201Y454360D01*
D02*
G37*
G36*
X251201D02*
X250327Y454245D01*
X249513Y453907D01*
X248814Y453371D01*
X248278Y452672D01*
X247940Y451858D01*
X247826Y450984D01*
X247940Y450111D01*
X248278Y449297D01*
X248814Y448597D01*
X249513Y448061D01*
X250327Y447724D01*
X251201Y447609D01*
X252074Y447724D01*
X252888Y448061D01*
X253588Y448597D01*
X254124Y449297D01*
X254461Y450111D01*
X254576Y450984D01*
X254461Y451858D01*
X254124Y452672D01*
X253588Y453371D01*
X252888Y453907D01*
X252074Y454245D01*
X251201Y454360D01*
D02*
G37*
G36*
X119181Y450266D02*
X117500D01*
Y447994D01*
X119181D01*
Y450266D01*
D02*
G37*
G36*
X116500D02*
X114819D01*
Y447994D01*
X116500D01*
Y450266D01*
D02*
G37*
G36*
X261201Y454360D02*
X260327Y454245D01*
X259513Y453907D01*
X258814Y453371D01*
X258278Y452672D01*
X257941Y451858D01*
X257825Y450984D01*
X257941Y450111D01*
X258278Y449297D01*
X258814Y448597D01*
X259513Y448061D01*
X260327Y447724D01*
X261201Y447609D01*
X262074Y447724D01*
X262889Y448061D01*
X263587Y448597D01*
X264124Y449297D01*
X264461Y450111D01*
X264576Y450984D01*
X264461Y451858D01*
X264124Y452672D01*
X263587Y453371D01*
X262889Y453907D01*
X262074Y454245D01*
X261201Y454360D01*
D02*
G37*
%LPD*%
D10*
X274606Y375984D02*
D03*
X263583D02*
D03*
D11*
X246555Y343209D02*
D03*
X240650D02*
D03*
X219185Y471126D02*
D03*
X225091D02*
D03*
X225090Y462661D02*
D03*
X219185D02*
D03*
X160720Y470437D02*
D03*
X166626D02*
D03*
X166626Y462760D02*
D03*
X160721D02*
D03*
X258949Y485594D02*
D03*
X264854D02*
D03*
X198713Y485693D02*
D03*
X204618D02*
D03*
X142807Y485594D02*
D03*
X148713D02*
D03*
X123504Y447494D02*
D03*
X129410D02*
D03*
X117000D02*
D03*
X111095D02*
D03*
X252748Y485693D02*
D03*
X246843D02*
D03*
X192309D02*
D03*
X186403D02*
D03*
X136311D02*
D03*
X130406D02*
D03*
X162008Y373228D02*
D03*
X156103D02*
D03*
D12*
X278240Y473390D02*
D03*
Y479295D02*
D03*
X278240Y467287D02*
D03*
Y461382D02*
D03*
X167618Y365551D02*
D03*
Y359646D02*
D03*
X249705Y364567D02*
D03*
Y370472D02*
D03*
X176181Y365551D02*
D03*
Y359646D02*
D03*
D13*
X232579Y343307D02*
D03*
Y354724D02*
D03*
X158071Y365354D02*
D03*
Y353937D02*
D03*
X233555Y473685D02*
D03*
Y462268D02*
D03*
X174795Y462760D02*
D03*
Y474177D02*
D03*
X110425Y459413D02*
D03*
Y470831D02*
D03*
D14*
X249508Y380020D02*
D03*
X238091D02*
D03*
X223516Y484413D02*
D03*
X234933D02*
D03*
X176173Y484118D02*
D03*
X164756D02*
D03*
X104232Y484055D02*
D03*
X115650D02*
D03*
D15*
X267118Y460102D02*
D03*
Y462661D02*
D03*
Y465220D02*
D03*
Y467779D02*
D03*
Y470339D02*
D03*
Y472898D02*
D03*
Y475457D02*
D03*
Y478016D02*
D03*
X245071Y460102D02*
D03*
Y462661D02*
D03*
Y465220D02*
D03*
Y467779D02*
D03*
Y470339D02*
D03*
Y472898D02*
D03*
Y475457D02*
D03*
Y478016D02*
D03*
X187295Y478508D02*
D03*
Y475949D02*
D03*
Y473390D02*
D03*
Y470831D02*
D03*
Y468272D02*
D03*
Y465713D02*
D03*
Y463154D02*
D03*
Y460595D02*
D03*
X209343Y478508D02*
D03*
Y475949D02*
D03*
Y473390D02*
D03*
Y470831D02*
D03*
Y468272D02*
D03*
Y465713D02*
D03*
Y463154D02*
D03*
Y460595D02*
D03*
X150287Y460890D02*
D03*
Y463449D02*
D03*
Y466008D02*
D03*
Y468567D02*
D03*
Y471126D02*
D03*
Y473685D02*
D03*
Y476244D02*
D03*
Y478803D02*
D03*
X128240Y460890D02*
D03*
Y463449D02*
D03*
Y466008D02*
D03*
Y468567D02*
D03*
Y471126D02*
D03*
Y473685D02*
D03*
Y476244D02*
D03*
Y478803D02*
D03*
D16*
X256095Y469059D02*
D03*
X198319Y469551D02*
D03*
X139264Y469846D02*
D03*
D17*
X130307Y419350D02*
D03*
Y416280D02*
D03*
X126665Y419350D02*
D03*
Y416280D02*
D03*
X129921Y394547D02*
D03*
Y391476D02*
D03*
X121555Y391280D02*
D03*
Y394350D02*
D03*
D18*
X129717Y409169D02*
D03*
X127748D02*
D03*
X125779D02*
D03*
X123811D02*
D03*
X121843D02*
D03*
Y399327D02*
D03*
X123811D02*
D03*
X125779D02*
D03*
X127748D02*
D03*
X129717D02*
D03*
D19*
X120858Y406216D02*
D03*
Y404248D02*
D03*
Y402280D02*
D03*
X130701D02*
D03*
Y404248D02*
D03*
Y406216D02*
D03*
D20*
X123122Y416437D02*
D03*
Y419390D02*
D03*
X119480Y416437D02*
D03*
Y419390D02*
D03*
D21*
X149705Y382579D02*
X151109Y383983D01*
X131988Y382579D02*
X149705D01*
X129724Y380315D02*
X131988Y382579D01*
X129724Y366043D02*
Y380315D01*
Y366043D02*
X131831Y363937D01*
X136063D01*
X233858Y375787D02*
Y384154D01*
X233087Y375016D02*
X233858Y375787D01*
X192536Y375016D02*
X233087D01*
X191224Y373705D02*
X192536Y375016D01*
X191224Y369768D02*
Y373705D01*
X109638Y459216D02*
X116626D01*
X119087Y468567D02*
X119874D01*
X118988Y468469D02*
X119087Y468567D01*
X279134Y452362D02*
Y453150D01*
X278642Y456595D02*
X278664Y456617D01*
X271201Y450984D02*
X271358Y451142D01*
X116921Y459512D02*
Y464532D01*
X116626Y459216D02*
X116921Y459512D01*
Y464532D02*
X118398Y466008D01*
X128240D01*
X117118Y477917D02*
X119185D01*
X129803Y447494D02*
X138439D01*
X141109Y450164D01*
X151109Y432605D02*
Y450892D01*
X150197Y431693D02*
X151109Y432605D01*
X129626Y431693D02*
X150197D01*
X151109Y450892D02*
X151201Y450984D01*
X124232Y433366D02*
Y442205D01*
X123130Y443307D02*
X124232Y442205D01*
X112106Y443307D02*
X123130D01*
X111095Y444319D02*
X112106Y443307D01*
X111095Y444319D02*
Y447494D01*
X129410D02*
X129626Y447278D01*
Y439325D02*
Y447278D01*
X241201Y391142D02*
Y395413D01*
X151109Y383983D02*
Y391831D01*
X161109Y383057D02*
Y391831D01*
X159153Y381102D02*
X161109Y383057D01*
X132578Y381102D02*
X159153D01*
X156103Y367323D02*
X158071Y365354D01*
X156103Y367323D02*
Y373228D01*
X155394Y373937D02*
X156103Y373228D01*
X146063Y373937D02*
X155394D01*
X131299Y379823D02*
X132578Y381102D01*
X131299Y370473D02*
Y379823D01*
X271102Y382421D02*
Y391831D01*
X270177Y381496D02*
X271102Y382421D01*
X265158Y381496D02*
X270177D01*
X264094Y380433D02*
X265158Y381496D01*
X136063Y373937D02*
X146063D01*
X190551Y369094D02*
X191224Y369768D01*
X168307Y369094D02*
X190551D01*
X167618Y368406D02*
X168307Y369094D01*
X233858Y384154D02*
X235138Y385433D01*
X260335D01*
X167618Y365551D02*
Y368406D01*
X192618Y366142D02*
Y373031D01*
X192028Y365551D02*
X192618Y366142D01*
X176181Y365551D02*
X192028D01*
X192618Y373031D02*
X193209Y373622D01*
X236713D01*
X176181Y359646D02*
X176181Y359646D01*
X167618Y359646D02*
X176181D01*
X167618Y355315D02*
Y359646D01*
X166240Y353937D02*
X167618Y355315D01*
X158071Y353937D02*
X166240D01*
X167421Y365354D02*
X167618Y365551D01*
X158071Y365354D02*
X167421D01*
X158071Y353937D02*
X158071Y353937D01*
X146063Y353937D02*
X158071D01*
X146063Y363937D02*
Y367913D01*
X145374Y368602D02*
X146063Y367913D01*
X133169Y368602D02*
X145374D01*
X131299Y370473D02*
X133169Y368602D01*
X236713Y373622D02*
X237402Y374311D01*
Y379331D01*
X123417Y473685D02*
X128240D01*
X119185Y477917D02*
X123417Y473685D01*
X246358Y346727D02*
X246555Y346530D01*
Y343209D02*
Y346530D01*
X232579Y354724D02*
X241555D01*
X160130Y469158D02*
X160524Y468764D01*
X160720Y470437D02*
X161311Y471028D01*
X238091Y380020D02*
X238681Y379429D01*
X237402Y379331D02*
X238091Y380020D01*
X233555Y473685D02*
Y474374D01*
X234933Y484413D02*
Y486284D01*
X234638Y486579D02*
X234933Y486284D01*
X169480Y474768D02*
Y478114D01*
Y474768D02*
X170071Y474177D01*
X174795D01*
X177748Y485693D02*
X181783D01*
X176173Y484118D02*
X177748Y485693D01*
X116134Y482543D02*
X119973D01*
X115445Y481854D02*
X116134Y482543D01*
X209343Y483036D02*
X211705Y485398D01*
X209343Y478508D02*
Y483036D01*
X272433Y481953D02*
X275287Y484807D01*
X272433Y476047D02*
Y481953D01*
X271843Y475457D02*
X272433Y476047D01*
X267118Y475457D02*
X271843D01*
X267118Y482051D02*
X270169Y485102D01*
X267118Y478016D02*
Y482051D01*
X275976Y461382D02*
X278240D01*
X272138Y465220D02*
X275976Y461382D01*
X278240Y466697D02*
X278240Y466697D01*
X278240Y466697D02*
Y467287D01*
X218791Y471520D02*
Y488646D01*
X252748Y485693D02*
Y486283D01*
X244972Y467681D02*
X245071Y467779D01*
X231685Y462563D02*
X231980Y462268D01*
X232374Y461087D02*
X233850Y462563D01*
X237984Y474571D02*
Y483724D01*
X237295Y484413D02*
X237984Y483724D01*
X234933Y484413D02*
X237295D01*
X234539Y465220D02*
X245071D01*
X233161Y466599D02*
X234539Y465220D01*
X178191Y468222D02*
X178240Y468272D01*
X177157Y465713D02*
X187295D01*
X144480Y458823D02*
X149598D01*
X150287Y459512D01*
Y460890D01*
X156882Y459118D02*
Y462071D01*
X155504Y463449D02*
X156882Y462071D01*
X150287Y463449D02*
X155504D01*
X155602Y476244D02*
X156783Y475063D01*
X150287Y476244D02*
X155602D01*
X156783Y471815D02*
Y475063D01*
X155110Y478803D02*
X156587Y480279D01*
Y486087D01*
X150287Y478803D02*
X155110D01*
X160721Y462760D02*
Y464925D01*
X159638Y466008D02*
X160721Y464925D01*
X150287Y466008D02*
X159638D01*
X160720Y468960D02*
Y470437D01*
X160524Y468764D02*
X160720Y468960D01*
X150287Y468567D02*
X150484Y468764D01*
X214264Y475949D02*
X215642Y477327D01*
Y480181D01*
X214461Y463153D02*
X215839Y461776D01*
Y458232D02*
Y461776D01*
X209343Y459020D02*
Y460595D01*
X208457Y458134D02*
X209343Y459020D01*
X203732Y458134D02*
X208457D01*
X209343Y463153D02*
X214461D01*
X209343Y475949D02*
X214264D01*
X145760Y482642D02*
X148713Y485594D01*
X145760Y475260D02*
Y482642D01*
Y475260D02*
X147335Y473685D01*
X150287D01*
X128240Y478803D02*
Y483528D01*
X130406Y485693D01*
X174795Y468075D02*
Y474177D01*
Y468075D02*
X177157Y465713D01*
X182571Y473390D02*
X187295D01*
X176173Y479788D02*
X182571Y473390D01*
X176173Y479788D02*
Y484118D01*
X186403Y485693D02*
X187098Y484998D01*
Y478705D02*
Y484998D01*
Y478705D02*
X187295Y478508D01*
X198319Y469551D02*
X199598Y470831D01*
X219185Y471126D02*
X219972Y471913D01*
X219185Y462661D02*
Y464729D01*
X218201Y465713D02*
X219185Y464729D01*
X209343Y465713D02*
X218201D01*
X219185Y471126D02*
X220169D01*
X253240Y486185D02*
Y487957D01*
X252748Y485693D02*
X253240Y486185D01*
X204618Y474768D02*
Y485693D01*
Y474768D02*
X205996Y473390D01*
X209343D01*
X237984Y474571D02*
X239657Y472898D01*
X245071D01*
X246843Y478213D02*
Y485693D01*
X246646Y478016D02*
X246843Y478213D01*
X245071Y478016D02*
X246646D01*
X263772Y485594D02*
X264854D01*
X262394Y484216D02*
X263772Y485594D01*
X262394Y474177D02*
Y484216D01*
Y474177D02*
X263673Y472898D01*
X267118D01*
Y465220D02*
X272138D01*
X249705Y370472D02*
X260433D01*
X262598Y368307D01*
X274094Y354232D02*
X274606Y354744D01*
X262598Y355728D02*
X264094Y354232D01*
X136063Y353937D02*
X146063D01*
X274094Y354232D02*
X274409Y353917D01*
X119626Y431693D02*
Y439325D01*
X125905Y431693D02*
X129626D01*
X124232Y433366D02*
X125905Y431693D01*
X238681Y367618D02*
Y379429D01*
X251221Y353878D02*
Y354528D01*
X233555Y462957D02*
X233949Y462563D01*
X160130Y469158D02*
Y488547D01*
X252256Y485693D02*
Y488154D01*
X233161Y466599D02*
Y473981D01*
X233555Y474374D01*
X238968Y470339D02*
X239067Y470240D01*
X239178D01*
X116134Y478902D02*
X117118Y477917D01*
X116134Y478902D02*
Y482543D01*
X278664Y456617D02*
X278951D01*
X272293Y459990D02*
X279134Y453150D01*
X260335Y385433D02*
X261109Y386207D01*
Y391831D01*
X262598Y355728D02*
Y368307D01*
X264094Y354232D02*
Y380433D01*
X267230Y459990D02*
X272293D01*
X272575Y462661D02*
X278642Y456595D01*
X267118Y462661D02*
X272575D01*
X234638Y486579D02*
X241429D01*
X245276Y369390D02*
X246358Y370472D01*
X249705D01*
X245276Y360236D02*
Y369390D01*
X218701Y357677D02*
Y359154D01*
X243701Y358661D02*
X245276Y360236D01*
X219685Y358661D02*
X243701D01*
X218701Y357677D02*
X219685Y358661D01*
X185433Y398917D02*
X187992Y396358D01*
X240256D01*
X241201Y395413D01*
X251201Y391142D02*
Y405295D01*
X130701Y402280D02*
X130799Y402181D01*
X117315Y418602D02*
X117807Y419095D01*
X119382D01*
X119410Y427539D02*
Y439862D01*
Y427539D02*
X120472Y426476D01*
X269783D01*
X271109Y425151D01*
Y391142D02*
Y425151D01*
X117905Y421949D02*
X122335D01*
X123122Y421161D01*
Y419390D02*
Y421161D01*
X115921Y419965D02*
X117905Y421949D01*
X118595Y409268D02*
X121744D01*
X121843Y409169D01*
X250394Y406102D02*
X251201Y405295D01*
X142815Y406102D02*
X250394D01*
X141043Y407874D02*
X142815Y406102D01*
X129717Y409169D02*
X132374D01*
X130701Y402280D02*
X132571D01*
X133555Y403264D01*
Y407988D01*
X132374Y409169D02*
X133555Y407988D01*
X129717Y409169D02*
Y415689D01*
X130169Y416142D01*
X130307Y416280D01*
X119382Y416142D02*
X130169D01*
X130307Y416280D02*
X140118D01*
X141043Y415354D01*
Y407874D02*
Y415354D01*
X126378Y412992D02*
X127854Y411516D01*
Y409276D02*
Y411516D01*
X127748Y409169D02*
X127854Y409276D01*
X115921Y406520D02*
Y419965D01*
X117815Y401476D02*
X118618Y402280D01*
X120858D01*
X117815Y394980D02*
Y401476D01*
Y394980D02*
X118445Y394350D01*
X121555D01*
X123811Y409169D02*
Y412114D01*
X122933Y412992D02*
X123811Y412114D01*
X120669Y412992D02*
X122933D01*
X117315Y413394D02*
Y418602D01*
Y413394D02*
X117717Y412992D01*
X120669D01*
X125689Y394587D02*
X129882D01*
X129921Y394547D01*
X115945Y406496D02*
X120579D01*
X120858Y406216D01*
X115921Y406520D02*
X115945Y406496D01*
D22*
X239854Y458331D02*
Y461776D01*
X238968Y470339D02*
X245071D01*
X111417Y477024D02*
Y492279D01*
Y477024D02*
X112492Y475949D01*
X116035D01*
X120858Y471126D02*
X128240D01*
X116035Y475949D02*
X120858Y471126D01*
X122630Y477917D02*
Y492484D01*
X239571Y458452D02*
X239734D01*
X239854Y458331D01*
X161311Y471028D02*
Y488350D01*
X160720Y470437D02*
X162787D01*
X124303Y476244D02*
X128240D01*
X122630Y477917D02*
X124303Y476244D01*
X267118Y467779D02*
X277748D01*
X219972Y488646D02*
X220661Y489335D01*
X219972Y471913D02*
Y488646D01*
X240248Y476933D02*
X241724Y475457D01*
X240248Y476933D02*
Y483134D01*
X241724Y475457D02*
X245071D01*
X181783Y477524D02*
Y481854D01*
Y477524D02*
X183358Y475949D01*
X178240Y468272D02*
X187295D01*
X182571Y463154D02*
X187295D01*
X183358Y475949D02*
X187295D01*
X162787Y470437D02*
X163673Y469551D01*
Y463646D02*
Y469551D01*
Y463646D02*
X164559Y462760D01*
X166626D01*
X150484Y468764D02*
X160524D01*
X119874Y468567D02*
X128240D01*
X121843Y458429D02*
Y462169D01*
X123122Y463449D01*
X128240D01*
X219185Y468665D02*
Y471126D01*
X218791Y468272D02*
X219185Y468665D01*
X209343Y468272D02*
X218791D01*
X220169Y471126D02*
X225090Y466205D01*
Y462661D02*
Y466205D01*
X192309Y485693D02*
Y487963D01*
Y485693D02*
Y488049D01*
X240740Y462661D02*
X245071D01*
X239854Y461776D02*
X240740Y462661D01*
X181488Y458823D02*
Y462071D01*
X182571Y463154D01*
X235819Y467681D02*
X244972D01*
X181095Y470831D02*
X187295D01*
D23*
X279429Y490453D02*
X282185Y487697D01*
X255307Y489335D02*
X279716D01*
X279984Y473390D02*
X282185Y475591D01*
X246358Y346727D02*
X276845D01*
X244120D02*
X246358D01*
X241752Y349095D02*
X244120Y346727D01*
X241752Y349095D02*
Y354528D01*
X278240Y467779D02*
Y473390D01*
X162295Y489335D02*
X190937D01*
X161311Y488350D02*
X162295Y489335D01*
X218201Y489236D02*
X218791Y488646D01*
X193496Y489236D02*
X218201D01*
X220661Y489335D02*
X251075D01*
X252256Y488154D01*
X159343Y489335D02*
X160130Y488547D01*
X137197Y489335D02*
X159343D01*
X136311Y488449D02*
X137197Y489335D01*
X136311Y485693D02*
Y488449D01*
X253240Y487957D02*
X254618Y489335D01*
X282185Y475591D02*
Y487697D01*
X190937Y489335D02*
X192309Y487963D01*
Y488049D02*
X193496Y489236D01*
X276845Y346727D02*
X282382Y352264D01*
Y465945D01*
X281039Y467287D02*
X282382Y465945D01*
X278240Y467287D02*
X281039D01*
X278240Y473390D02*
X279984D01*
D24*
X146063Y353937D02*
D03*
X271201Y450984D02*
D03*
D25*
X136063Y353937D02*
D03*
X146063Y363937D02*
D03*
X136063D02*
D03*
X146063Y373937D02*
D03*
X136063D02*
D03*
X129626Y439325D02*
D03*
X119626D02*
D03*
X129626Y431693D02*
D03*
X119626D02*
D03*
X197795Y368504D02*
D03*
X207795D02*
D03*
X217795D02*
D03*
X227795D02*
D03*
X251752Y354528D02*
D03*
X274094Y354232D02*
D03*
X111350Y494488D02*
D03*
X263811D02*
D03*
X234776D02*
D03*
X201508Y494685D02*
D03*
X170405D02*
D03*
X140386Y494488D02*
D03*
X141201Y391142D02*
D03*
X151201D02*
D03*
X161201D02*
D03*
X171201D02*
D03*
X181201D02*
D03*
X191201D02*
D03*
X201201D02*
D03*
X211201D02*
D03*
X221201D02*
D03*
X231201D02*
D03*
X241201D02*
D03*
X251201D02*
D03*
X261201D02*
D03*
X271201D02*
D03*
X141201Y450984D02*
D03*
X151201D02*
D03*
X161201D02*
D03*
X171201D02*
D03*
X181201D02*
D03*
X191201D02*
D03*
X201201D02*
D03*
X211201D02*
D03*
X221201D02*
D03*
X231201D02*
D03*
X241201D02*
D03*
X251201D02*
D03*
X261201D02*
D03*
X207913Y357776D02*
D03*
X197913D02*
D03*
X187913D02*
D03*
X201201Y401142D02*
D03*
X141201D02*
D03*
X151201D02*
D03*
D26*
X237795Y368504D02*
D03*
X241752Y354528D02*
D03*
X264094Y354232D02*
D03*
X121350Y494488D02*
D03*
X273811D02*
D03*
X244776D02*
D03*
X211508Y494685D02*
D03*
X180405D02*
D03*
X150386Y494488D02*
D03*
X217913Y357776D02*
D03*
D27*
X201201Y411142D02*
D03*
D28*
X118988Y468469D02*
D03*
X239571Y458452D02*
D03*
X116626Y459216D02*
D03*
X185433Y398917D02*
D03*
X119973Y482543D02*
D03*
X241429Y486579D02*
D03*
X181783Y485693D02*
D03*
X169480Y478114D02*
D03*
X211705Y485398D02*
D03*
X203732Y458134D02*
D03*
X275287Y484807D02*
D03*
X279134Y452362D02*
D03*
X240248Y483134D02*
D03*
X270169Y485102D02*
D03*
X181783Y481854D02*
D03*
X178191Y468222D02*
D03*
X156783Y471815D02*
D03*
X156587Y486087D02*
D03*
X121843Y458429D02*
D03*
X156882Y459118D02*
D03*
X144480Y458823D02*
D03*
X215642Y480181D02*
D03*
X215839Y458232D02*
D03*
X181488Y458823D02*
D03*
X239178Y470240D02*
D03*
X235819Y467681D02*
D03*
X181095Y470831D02*
D03*
X278951Y456617D02*
D03*
X118595Y409268D02*
D03*
X126378Y412992D02*
D03*
X120669D02*
D03*
X125689Y394587D02*
D03*
X115945Y406496D02*
D03*
M02*
