G04 Layer_Color=16711935*
%FSLAX25Y25*%
%MOIN*%
G70*
G01*
G75*
%ADD44R,0.06693X0.06693*%
%ADD45C,0.06693*%
%ADD46R,0.06693X0.06693*%
%ADD47C,0.06787*%
%ADD48C,0.02953*%
D44*
X146063Y353937D02*
D03*
X271201Y450984D02*
D03*
D45*
X136063Y353937D02*
D03*
X146063Y363937D02*
D03*
X136063D02*
D03*
X146063Y373937D02*
D03*
X136063D02*
D03*
X129626Y439325D02*
D03*
X119626D02*
D03*
X129626Y431693D02*
D03*
X119626D02*
D03*
X197795Y368504D02*
D03*
X207795D02*
D03*
X217795D02*
D03*
X227795D02*
D03*
X251752Y354528D02*
D03*
X274094Y354232D02*
D03*
X111350Y494488D02*
D03*
X263811D02*
D03*
X234776D02*
D03*
X201508Y494685D02*
D03*
X170405D02*
D03*
X140386Y494488D02*
D03*
X141201Y391142D02*
D03*
X151201D02*
D03*
X161201D02*
D03*
X171201D02*
D03*
X181201D02*
D03*
X191201D02*
D03*
X201201D02*
D03*
X211201D02*
D03*
X221201D02*
D03*
X231201D02*
D03*
X241201D02*
D03*
X251201D02*
D03*
X261201D02*
D03*
X271201D02*
D03*
X141201Y450984D02*
D03*
X151201D02*
D03*
X161201D02*
D03*
X171201D02*
D03*
X181201D02*
D03*
X191201D02*
D03*
X201201D02*
D03*
X211201D02*
D03*
X221201D02*
D03*
X231201D02*
D03*
X241201D02*
D03*
X251201D02*
D03*
X261201D02*
D03*
X207913Y357776D02*
D03*
X197913D02*
D03*
X187913D02*
D03*
X201201Y401142D02*
D03*
X141201D02*
D03*
X151201D02*
D03*
D46*
X237795Y368504D02*
D03*
X241752Y354528D02*
D03*
X264094Y354232D02*
D03*
X121350Y494488D02*
D03*
X273811D02*
D03*
X244776D02*
D03*
X211508Y494685D02*
D03*
X180405D02*
D03*
X150386Y494488D02*
D03*
X217913Y357776D02*
D03*
D47*
X201201Y411142D02*
D03*
D48*
X118988Y468469D02*
D03*
X239571Y458452D02*
D03*
X116626Y459216D02*
D03*
X185433Y398917D02*
D03*
X119973Y482543D02*
D03*
X241429Y486579D02*
D03*
X181783Y485693D02*
D03*
X169480Y478114D02*
D03*
X211705Y485398D02*
D03*
X203732Y458134D02*
D03*
X275287Y484807D02*
D03*
X279134Y452362D02*
D03*
X240248Y483134D02*
D03*
X270169Y485102D02*
D03*
X181783Y481854D02*
D03*
X178191Y468222D02*
D03*
X156783Y471815D02*
D03*
X156587Y486087D02*
D03*
X121843Y458429D02*
D03*
X156882Y459118D02*
D03*
X144480Y458823D02*
D03*
X215642Y480181D02*
D03*
X215839Y458232D02*
D03*
X181488Y458823D02*
D03*
X239178Y470240D02*
D03*
X235819Y467681D02*
D03*
X181095Y470831D02*
D03*
X278951Y456617D02*
D03*
X118595Y409268D02*
D03*
X126378Y412992D02*
D03*
X120669D02*
D03*
X125689Y394587D02*
D03*
X115945Y406496D02*
D03*
M02*
