G04 Layer_Color=65535*
%FSLAX25Y25*%
%MOIN*%
G70*
G01*
G75*
%ADD29C,0.00787*%
%ADD30C,0.00984*%
%ADD31C,0.00394*%
%ADD32C,0.00689*%
D29*
X255455Y478803D02*
G03*
X256734Y478803I640J0D01*
G01*
X197679Y479295D02*
G03*
X198959Y479295I640J0D01*
G01*
X138624Y479591D02*
G03*
X139903Y479591I640J0D01*
G01*
X276715Y423374D02*
G03*
X276690Y418562I667J-2409D01*
G01*
X131063Y378937D02*
X151063D01*
X131063Y348937D02*
X151063D01*
X131063D02*
Y378937D01*
X151063Y348937D02*
Y378937D01*
Y359770D02*
Y378937D01*
X262205Y384449D02*
X277594D01*
X260630Y382874D02*
X262205Y384449D01*
X260630Y379921D02*
Y382874D01*
Y367520D02*
Y372047D01*
X277559Y367520D02*
Y372047D01*
Y379921D02*
Y384449D01*
X260630Y367520D02*
X277559D01*
X238484Y340453D02*
Y345965D01*
X248721D01*
Y340453D02*
Y345965D01*
X238484Y340453D02*
X248721D01*
X275484Y481461D02*
X280996D01*
Y471224D02*
Y481461D01*
X275484Y471224D02*
X280996D01*
X275484D02*
Y481461D01*
X227256Y468370D02*
Y473882D01*
X217020Y468370D02*
X227256D01*
X217020D02*
Y473882D01*
X227256D01*
X275484Y459217D02*
X280996D01*
X275484D02*
Y469453D01*
X280996D01*
Y459217D02*
Y469453D01*
X217020Y459905D02*
Y465417D01*
X227256D01*
Y459905D02*
Y465417D01*
X217020Y459905D02*
X227256D01*
X168791Y467681D02*
Y473193D01*
X158555Y467681D02*
X168791D01*
X158555D02*
Y473193D01*
X168791D01*
X158555Y460004D02*
Y465516D01*
X168791D01*
Y460004D02*
Y465516D01*
X158555Y460004D02*
X168791D01*
X267020Y482839D02*
Y488350D01*
X256784Y482839D02*
X267020D01*
X256784D02*
Y488350D01*
X267020D01*
X206783Y482937D02*
Y488449D01*
X196547Y482937D02*
X206783D01*
X196547D02*
Y488449D01*
X206783D01*
X150878Y482839D02*
Y488350D01*
X140642Y482839D02*
X150878D01*
X140642D02*
Y488350D01*
X150878D01*
X164862Y357480D02*
Y367717D01*
Y357480D02*
X170374D01*
Y367717D01*
X164862D02*
X170374D01*
X252461Y362402D02*
Y372638D01*
X246949D02*
X252461D01*
X246949Y362402D02*
Y372638D01*
Y362402D02*
X252461D01*
X121339Y444738D02*
X131575D01*
Y450250D01*
X121339D02*
X131575D01*
X121339Y444738D02*
Y450250D01*
X108929D02*
X119165D01*
X108929Y444738D02*
Y450250D01*
Y444738D02*
X119165D01*
Y450250D01*
X236910Y340354D02*
Y357185D01*
X236319Y357776D02*
X236910Y357185D01*
X228248Y357776D02*
X236319D01*
X228248Y340354D02*
X236910D01*
X228248D02*
Y357776D01*
X153740Y351476D02*
Y368307D01*
Y351476D02*
X154331Y350886D01*
X162401D01*
X153740Y368307D02*
X162401D01*
Y350886D02*
Y368307D01*
X235630Y384350D02*
X252461D01*
X235039Y383760D02*
X235630Y384350D01*
X235039Y375689D02*
Y383760D01*
X252461Y375689D02*
Y384350D01*
X235039Y375689D02*
X252461D01*
X244579Y482839D02*
Y488547D01*
X255012D01*
Y482839D02*
Y488547D01*
X244579Y482839D02*
X255012D01*
X184139D02*
Y488547D01*
X194572D01*
Y482839D02*
Y488547D01*
X184139Y482839D02*
X194572D01*
X128142D02*
Y488547D01*
X138575D01*
Y482839D02*
Y488547D01*
X128142Y482839D02*
X138575D01*
X173327Y357382D02*
Y367815D01*
Y357382D02*
X179035D01*
Y367815D01*
X173327D02*
X179035D01*
X153839Y376083D02*
X164272D01*
X153839Y370374D02*
Y376083D01*
Y370374D02*
X164272D01*
Y376083D01*
X229126Y459217D02*
X237984D01*
X229126D02*
Y476736D01*
X237984D01*
Y459217D02*
Y476736D01*
X179224Y459709D02*
Y477228D01*
X170366D02*
X179224D01*
X170366Y459709D02*
Y477228D01*
Y459709D02*
X179224D01*
X105996Y473882D02*
X114854D01*
Y456362D02*
Y473882D01*
X105996Y456362D02*
X114854D01*
X105996D02*
Y473882D01*
X220465Y479984D02*
X237984D01*
Y488842D01*
X220465D02*
X237984D01*
X220465Y479984D02*
Y488842D01*
X161705Y479689D02*
Y488547D01*
X179224D01*
Y479689D02*
Y488547D01*
X161705Y479689D02*
X179224D01*
X101181Y479626D02*
X118701D01*
Y488484D01*
X101181D02*
X118701D01*
X101181Y479626D02*
Y488484D01*
X249598Y459216D02*
Y478902D01*
Y459216D02*
X262591D01*
Y478902D01*
X256734D02*
X262591D01*
X249598D02*
X255455D01*
X191823Y479394D02*
X197679D01*
X198959D02*
X204815D01*
Y459709D02*
Y479394D01*
X191823Y459709D02*
X204815D01*
X191823D02*
Y479394D01*
X132768Y460004D02*
Y479689D01*
Y460004D02*
X145760D01*
Y479689D01*
X139903D02*
X145760D01*
X132768D02*
X138624D01*
X242795Y363504D02*
Y373504D01*
X192795Y363504D02*
X242795D01*
X192795Y373504D02*
X242795D01*
X192795Y363504D02*
Y373504D01*
X279823Y344390D02*
Y364075D01*
X258366Y344390D02*
Y364075D01*
Y344390D02*
X279823D01*
X258366Y364075D02*
X279823D01*
X136909Y386614D02*
X276772D01*
Y418405D01*
X136909Y455413D02*
X276772D01*
X136909Y386614D02*
Y455413D01*
X276772Y423327D02*
Y455413D01*
X131783Y410744D02*
X132276D01*
Y408284D02*
Y410744D01*
Y397752D02*
Y400213D01*
X131783Y397752D02*
X132276D01*
X119283D02*
X119776D01*
X119283D02*
Y400213D01*
Y410744D02*
X119776D01*
X119283Y408284D02*
Y410744D01*
X165945Y431692D02*
X168569D01*
X167257D01*
Y427756D01*
X169881Y430380D02*
Y428412D01*
X170537Y427756D01*
X172504D01*
Y430380D01*
X173816D02*
Y427756D01*
Y429068D01*
X174472Y429724D01*
X175128Y430380D01*
X175784D01*
X177752Y427756D02*
X179064D01*
X178408D01*
Y430380D01*
X177752D01*
X181032Y427756D02*
Y430380D01*
X183000D01*
X183656Y429724D01*
Y427756D01*
X186279Y426444D02*
X186935D01*
X187591Y427100D01*
Y430380D01*
X185624D01*
X184968Y429724D01*
Y428412D01*
X185624Y427756D01*
X187591D01*
X192839D02*
Y431692D01*
X194807D01*
X195463Y431036D01*
Y429724D01*
X194807Y429068D01*
X192839D01*
X194151D02*
X195463Y427756D01*
X198743D02*
X197431D01*
X196775Y428412D01*
Y429724D01*
X197431Y430380D01*
X198743D01*
X199399Y429724D01*
Y429068D01*
X196775D01*
X200711Y427756D02*
X202678D01*
X203334Y428412D01*
X202678Y429068D01*
X201366D01*
X200711Y429724D01*
X201366Y430380D01*
X203334D01*
X206614Y427756D02*
X205302D01*
X204646Y428412D01*
Y429724D01*
X205302Y430380D01*
X206614D01*
X207270Y429724D01*
Y429068D01*
X204646D01*
X209238Y430380D02*
X210550D01*
X211206Y429724D01*
Y427756D01*
X209238D01*
X208582Y428412D01*
X209238Y429068D01*
X211206D01*
X212518Y430380D02*
Y427756D01*
Y429068D01*
X213174Y429724D01*
X213830Y430380D01*
X214486D01*
X219077D02*
X217109D01*
X216454Y429724D01*
Y428412D01*
X217109Y427756D01*
X219077D01*
X220389Y431692D02*
Y427756D01*
Y429724D01*
X221045Y430380D01*
X222357D01*
X223013Y429724D01*
Y427756D01*
X228261Y431692D02*
Y427756D01*
X230885D01*
X232853Y430380D02*
X234164D01*
X234820Y429724D01*
Y427756D01*
X232853D01*
X232196Y428412D01*
X232853Y429068D01*
X234820D01*
X236132Y431692D02*
Y427756D01*
X238100D01*
X238756Y428412D01*
Y429068D01*
Y429724D01*
X238100Y430380D01*
X236132D01*
D30*
X132177Y413303D02*
G03*
X132177Y413303I-492J0D01*
G01*
D31*
X110780Y439534D02*
X110452Y439861D01*
X109796D01*
X109468Y439534D01*
Y439206D01*
X109796Y438878D01*
X110452D01*
X110780Y438550D01*
Y438222D01*
X110452Y437894D01*
X109796D01*
X109468Y438222D01*
X111436Y439861D02*
Y437894D01*
X112092Y438550D01*
X112748Y437894D01*
Y439861D01*
X114716Y437894D02*
X113404D01*
X114716Y439206D01*
Y439534D01*
X114388Y439861D01*
X113732D01*
X113404Y439534D01*
X110977Y432545D02*
X110649Y432873D01*
X109993D01*
X109665Y432545D01*
Y432217D01*
X109993Y431889D01*
X110649D01*
X110977Y431561D01*
Y431234D01*
X110649Y430905D01*
X109993D01*
X109665Y431234D01*
X111633Y432873D02*
Y430905D01*
X112289Y431561D01*
X112945Y430905D01*
Y432873D01*
X113601Y430905D02*
X114257D01*
X113929D01*
Y432873D01*
X113601Y432545D01*
X149540Y407250D02*
X149212Y407578D01*
X148556D01*
X148228Y407250D01*
Y406922D01*
X148556Y406594D01*
X149212D01*
X149540Y406266D01*
Y405938D01*
X149212Y405610D01*
X148556D01*
X148228Y405938D01*
X150196Y407578D02*
Y405610D01*
X151180D01*
X151508Y405938D01*
Y407250D01*
X151180Y407578D01*
X150196D01*
X152164Y405610D02*
Y406922D01*
X152820Y407578D01*
X153476Y406922D01*
Y405610D01*
Y406594D01*
X152164D01*
X139796Y407348D02*
X139468Y407677D01*
X138812D01*
X138484Y407348D01*
Y407021D01*
X138812Y406693D01*
X139468D01*
X139796Y406365D01*
Y406037D01*
X139468Y405709D01*
X138812D01*
X138484Y406037D01*
X141764Y407348D02*
X141436Y407677D01*
X140780D01*
X140452Y407348D01*
Y406037D01*
X140780Y405709D01*
X141436D01*
X141764Y406037D01*
X142420Y407677D02*
Y405709D01*
X143732D01*
X205807Y400000D02*
Y401968D01*
X206791D01*
X207119Y401640D01*
Y400984D01*
X206791Y400656D01*
X205807D01*
X207775Y401968D02*
Y400000D01*
Y400984D01*
X209087D01*
Y401968D01*
Y400000D01*
X209743D02*
Y401312D01*
X210399Y401968D01*
X211055Y401312D01*
Y400000D01*
Y400984D01*
X209743D01*
X205906Y410138D02*
Y412106D01*
X206889D01*
X207217Y411778D01*
Y411122D01*
X206889Y410794D01*
X205906D01*
X207873Y412106D02*
Y410138D01*
Y411122D01*
X209185D01*
Y412106D01*
Y410138D01*
X209841Y412106D02*
Y410138D01*
X210825D01*
X211153Y410466D01*
Y410794D01*
X210825Y411122D01*
X209841D01*
X210825D01*
X211153Y411450D01*
Y411778D01*
X210825Y412106D01*
X209841D01*
D32*
X146390Y346751D02*
X144291D01*
Y343602D01*
X146390D01*
X144291Y345177D02*
X145341D01*
X147440Y343602D02*
X148489D01*
X147965D01*
Y346751D01*
X147440Y346226D01*
X136253Y346751D02*
X134153D01*
Y343602D01*
X136253D01*
X134153Y345177D02*
X135203D01*
X139401Y343602D02*
X137302D01*
X139401Y345701D01*
Y346226D01*
X138876Y346751D01*
X137827D01*
X137302Y346226D01*
X197736Y377296D02*
Y375722D01*
X198261Y375197D01*
X199835D01*
Y377296D01*
X200885Y378345D02*
Y375197D01*
X202984D01*
X206133Y377821D02*
X205608Y378345D01*
X204558D01*
X204033Y377821D01*
Y375722D01*
X204558Y375197D01*
X205608D01*
X206133Y375722D01*
X207182Y378345D02*
Y375197D01*
X208756D01*
X209281Y375722D01*
Y377821D01*
X208756Y378345D01*
X207182D01*
X210331Y376771D02*
X212430D01*
X213479Y375197D02*
X214529D01*
X214004D01*
Y378345D01*
X213479Y377821D01*
X217677Y375197D02*
Y378345D01*
X216103Y376771D01*
X218202D01*
X220826Y375197D02*
Y378345D01*
X219252Y376771D01*
X221351D01*
X222400D02*
X224499D01*
X227648Y377821D02*
X227123Y378345D01*
X226074D01*
X225549Y377821D01*
Y375722D01*
X226074Y375197D01*
X227123D01*
X227648Y375722D01*
Y376771D01*
X226598D01*
X230796Y375197D02*
X228697D01*
X230796Y377296D01*
Y377821D01*
X230272Y378345D01*
X229222D01*
X228697Y377821D01*
X242717Y443765D02*
X244816D01*
X243766D01*
Y440617D01*
X247439D02*
X246390D01*
X245865Y441141D01*
Y442191D01*
X246390Y442716D01*
X247439D01*
X247964Y442191D01*
Y441666D01*
X245865D01*
X250588Y440617D02*
X249538D01*
X249014Y441141D01*
Y442191D01*
X249538Y442716D01*
X250588D01*
X251113Y442191D01*
Y441666D01*
X249014D01*
X252162Y440617D02*
Y442716D01*
X253737D01*
X254261Y442191D01*
Y440617D01*
X255311D02*
X256885D01*
X257410Y441141D01*
X256885Y441666D01*
X255836D01*
X255311Y442191D01*
X255836Y442716D01*
X257410D01*
X258459D02*
Y441141D01*
X258984Y440617D01*
X260559D01*
Y440092D01*
X260034Y439567D01*
X259509D01*
X260559Y440617D02*
Y442716D01*
X264757Y443240D02*
X265281Y443765D01*
X266331D01*
X266856Y443240D01*
Y442716D01*
X266331Y442191D01*
X265806D01*
X266331D01*
X266856Y441666D01*
Y441141D01*
X266331Y440617D01*
X265281D01*
X264757Y441141D01*
X267905Y440617D02*
Y441141D01*
X268430D01*
Y440617D01*
X267905D01*
X272628D02*
X270529D01*
X272628Y442716D01*
Y443240D01*
X272103Y443765D01*
X271054D01*
X270529Y443240D01*
M02*
